<?xml version="1.0" encoding="UTF-8"?>
<svg version="1.1" xmlns="http://www.w3.org/2000/svg" width="1254" height="1254">

<path d="M0 0 C1.05627594 -0.00705963 2.11255188 -0.01411926 3.20083618 -0.02139282 C45.17272656 -0.23805024 83.11779694 4.24870339 123.5078125 16.203125 C124.41845459 16.46673828 125.32909668 16.73035156 126.26733398 17.00195312 C130.42012584 18.21677001 134.4192777 19.43032428 138.3203125 21.328125 C141.87132033 23.00651159 145.43745726 24.60483128 149.06640625 26.10546875 C183.35973864 40.32698925 216.62116633 59.59159398 243.99609375 84.90234375 C246.00762846 86.74494708 248.04751415 88.52527334 250.1171875 90.30078125 C254.94348306 94.51399922 259.48777323 98.99700689 264.01635742 103.52636719 C265.43449534 104.94232447 266.86077915 106.35010789 268.28710938 107.7578125 C274.47010372 113.92791665 280.0760485 120.36823991 285.5078125 127.203125 C286.48432044 128.37700411 287.46421086 129.54808783 288.44921875 130.71484375 C309.40522968 155.92331108 328.06549184 186.16383282 339.4453125 217.015625 C341.99705963 223.87649915 344.62336219 230.69988971 347.44946289 237.45336914 C353.9248257 253.14800323 357.60369251 269.90021505 361.1953125 286.453125 C361.46835205 287.68554932 361.7413916 288.91797363 362.02270508 290.18774414 C366.87286976 313.22127131 369.17975938 336.06868455 369.02929688 359.60449219 C369.00785489 363.57028556 369.02925355 367.53426066 369.0546875 371.5 C369.07355958 390.06533842 367.33676783 407.87817619 364.5078125 426.203125 C364.36332672 427.13920593 364.21884094 428.07528687 364.06997681 429.03973389 C361.81598937 443.40996861 358.2733859 457.28340563 353.75390625 471.09375 C352.72494194 474.34087796 351.90440748 477.61485183 351.10546875 480.92578125 C349.56361001 487.20043317 347.59594448 493.27930642 345.5078125 499.390625 C345.16492188 500.40576172 344.82203125 501.42089844 344.46875 502.46679688 C344.13101563 503.46646484 343.79328125 504.46613281 343.4453125 505.49609375 C343.11764893 506.46691895 342.78998535 507.43774414 342.45239258 508.43798828 C341.85889271 510.17538283 341.25366048 511.90885892 340.6315918 513.63623047 C338.82590674 518.73625695 337.82179839 523.56981573 337.3203125 528.953125 C337.24208252 529.76676514 337.16385254 530.58040527 337.08325195 531.41870117 C334.32539984 562.97610817 338.72549503 598.98135771 354.3671875 627.0703125 C355.58440146 629.34633586 356.57318236 631.68524716 357.57519531 634.06201172 C359.59805385 638.70611364 361.82191128 643.25918558 364.0078125 647.828125 C364.49378906 648.85164062 364.97976563 649.87515625 365.48046875 650.9296875 C365.95355469 651.9196875 366.42664063 652.9096875 366.9140625 653.9296875 C367.34009766 654.82252441 367.76613281 655.71536133 368.20507812 656.63525391 C369.52557957 659.23814637 370.97670137 661.71926041 372.5078125 664.203125 C368.58578251 665.68747206 365.12536015 664.73894153 361.17578125 663.8671875 C360.443629 663.7125856 359.71147675 663.5579837 358.95713806 663.3986969 C356.53450885 662.88416838 354.11497494 662.3564153 351.6953125 661.828125 C350.00058261 661.46481038 348.30575678 661.10194299 346.61083984 660.73950195 C332.65695105 657.73849971 318.74577665 654.54731049 304.85620117 651.26220703 C276.23573967 643.79055379 276.23573967 643.79055379 248.1796875 650.41796875 C242.81423109 653.84589923 237.91739672 658.00951465 232.93286133 661.96313477 C222.04299133 670.56788873 210.42360242 677.86716462 198.53222656 684.98535156 C196.84623958 685.99954633 195.1716187 687.03260635 193.5 688.0703125 C184.09742544 693.79957805 174.05815245 698.29314101 164.10205078 702.96435547 C161.80024985 704.06348382 159.5318396 705.20880512 157.265625 706.37890625 C153.65915841 708.19733533 149.98836862 709.48644631 146.1328125 710.703125 C141.95552194 712.02697726 137.91496665 713.4300169 133.87109375 715.1171875 C127.74023151 717.59977953 121.44712102 719.34545097 115.0703125 721.078125 C113.81275146 721.42182129 112.55519043 721.76551758 111.25952148 722.11962891 C81.62013439 730.13977219 53.36593923 734.40809037 22.6953125 734.328125 C21.64867432 734.3265741 20.60203613 734.32502319 19.52368164 734.32342529 C-29.93788235 734.23719259 -29.93788235 734.23719259 -43.984375 730.19921875 C-48.39185731 728.94765083 -52.77602566 728.37504592 -57.30859375 727.765625 C-60.52361881 727.19757149 -63.41067153 726.26658296 -66.4921875 725.203125 C-67.96489212 724.8804106 -69.44452937 724.58756439 -70.9296875 724.328125 C-93.37785313 719.96505423 -117.25506857 712.49608588 -137.453125 701.6953125 C-139.99383089 700.44781937 -142.48377561 699.41492526 -145.12109375 698.40234375 C-151.00813769 696.08127915 -156.50779074 693.17400694 -162.0546875 690.140625 C-163.105354 689.56771729 -164.15602051 688.99480957 -165.23852539 688.40454102 C-174.28514952 683.41622847 -182.97229688 678.03914693 -191.4921875 672.203125 C-192.18860352 671.73052246 -192.88501953 671.25791992 -193.60253906 670.77099609 C-203.60671186 663.95824085 -213.13191318 656.67882228 -222.41552734 648.91503906 C-223.8953791 647.69510954 -225.39254352 646.49605441 -226.90087891 645.31152344 C-234.51608375 639.27260294 -241.37456125 632.62746851 -248.21777344 625.73828125 C-250.11434689 623.83098168 -252.02139055 621.93462441 -253.9296875 620.0390625 C-260.91067319 613.06596012 -267.39852028 605.97363799 -273.4921875 598.203125 C-274.48028567 597.00572828 -275.47197289 595.81127538 -276.46875 594.62109375 C-288.88691443 579.56208702 -299.92822493 563.21808167 -309.4921875 546.203125 C-309.98428711 545.32962402 -310.47638672 544.45612305 -310.98339844 543.55615234 C-320.26511647 526.98006312 -328.73034868 510.15660471 -335.32421875 492.3203125 C-336.31096479 489.68678963 -337.35360642 487.09082046 -338.41796875 484.48828125 C-359.66825134 431.46875212 -364.76629051 368.23234265 -354.4921875 312.203125 C-354.20335693 310.60041748 -354.20335693 310.60041748 -353.90869141 308.96533203 C-352.62201582 301.99879532 -351.13146808 295.09469823 -349.4921875 288.203125 C-349.26273438 287.23439453 -349.03328125 286.26566406 -348.796875 285.26757812 C-337.525376 238.4165397 -316.62153399 192.67796659 -287.4921875 154.203125 C-287.03005859 153.59227051 -286.56792969 152.98141602 -286.09179688 152.35205078 C-282.96189775 148.24487895 -279.75589783 144.20460439 -276.4921875 140.203125 C-276.05583984 139.66768066 -275.61949219 139.13223633 -275.16992188 138.58056641 C-261.9113087 122.40996893 -247.45081348 106.74121865 -231.4921875 93.203125 C-230.04005859 91.91728516 -230.04005859 91.91728516 -228.55859375 90.60546875 C-188.45941665 55.26200524 -139.04844819 27.8840327 -87.4921875 13.703125 C-86.41678711 13.40688232 -85.34138672 13.11063965 -84.23339844 12.80541992 C-56.72989466 5.32267055 -28.58964451 0.12834956 0 0 Z " fill="#FBFCFD" transform="translate(594.4921875,231.796875)"/>
<path d="M0 0 C4.42156194 -0.01103511 8.84301471 -0.02882929 13.26452637 -0.05255127 C18.49522084 -0.08000866 23.7257404 -0.09218239 28.95650482 -0.09296608 C30.88399389 -0.09558241 32.81148409 -0.10323198 34.73892975 -0.11643028 C44.29187648 -0.17816235 53.12833569 -0.05275688 62.38894653 2.51931763 C65.05184699 3.23350267 67.61908304 3.61170204 70.35565186 3.91867065 C77.57729214 5.17323298 83.80011517 8.79609518 90.18621826 12.23800659 C91.79504841 13.09847478 93.4234264 13.92220305 95.05487061 14.73898315 C123.75818493 29.40491018 142.78155979 56.07835341 152.73773193 86.0763855 C155.44046592 94.79391094 156.8263301 103.62577764 157.7749176 112.68789673 C157.94173028 114.26953784 158.11671732 115.85036595 158.30435181 117.42967224 C159.09176285 124.4051425 159.22079329 131.32531985 159.24627686 138.34054565 C159.25197693 139.58378601 159.257677 140.82702637 159.2635498 142.10794067 C159.27295799 144.73348146 159.27951706 147.35903383 159.28338623 149.98458862 C159.29302115 153.92768016 159.32405677 157.87023389 159.35565186 161.8132019 C159.5230811 201.62405059 151.78644718 238.13788086 123.04315186 267.23117065 C122.41280029 267.93370972 121.78244873 268.63624878 121.13299561 269.3600769 C105.07140188 286.83367887 79.59420332 298.22256866 56.41815186 301.7975769 C55.20436104 301.98596634 55.20436104 301.98596634 53.96604919 302.17816162 C44.63726893 303.54520599 35.26723184 304.14772995 25.85980225 304.68429565 C22.90260124 304.85348456 19.94659323 305.03719665 16.99041748 305.22335815 C-10.8257886 306.9240171 -38.64333816 307.39362558 -66.50287104 307.39842772 C-68.885938 307.3991535 -71.26899967 307.40131512 -73.65206528 307.40392494 C-82.03800558 307.41307893 -90.42393035 307.41727171 -98.80987549 307.41647339 C-106.51483247 307.41587216 -114.21971957 307.42645908 -121.92465889 307.44221705 C-128.64334271 307.45544787 -135.36200407 307.46065103 -142.08070076 307.46001798 C-146.04837472 307.45976792 -150.01598594 307.46233754 -153.98364639 307.47319603 C-169.53261138 307.51273868 -185.01431474 307.34066136 -200.53448486 306.32614136 C-202.36337848 306.20663384 -202.36337848 306.20663384 -204.22921944 306.08471203 C-229.90257578 304.20920405 -254.06935648 294.60749138 -273.95684814 278.23117065 C-274.88110596 277.47191284 -275.80536377 276.71265503 -276.75762939 275.9303894 C-297.47648831 258.02484089 -309.20730034 233.61798425 -314.95684814 207.23117065 C-315.17212158 206.25406128 -315.38739502 205.2769519 -315.60919189 204.27023315 C-324.83080696 158.36409099 -322.1661041 97.45732509 -296.47637939 57.22335815 C-280.37777805 33.32529516 -255.52659606 13.65376557 -227.12872314 6.84835815 C-210.51166745 3.61499017 -194.09453979 2.6301127 -177.19299316 2.27938843 C-174.85747962 2.22902798 -172.52216996 2.17274112 -170.18682861 2.11495972 C-155.44468471 1.75154052 -140.70134637 1.47908761 -125.95684814 1.23117065 C-125.28732872 1.2197982 -124.6178093 1.20842575 -123.9280014 1.19670868 C-82.62140349 0.49540588 -41.31250556 0.1003784 0 0 Z " fill="#032162" transform="translate(684.9568481445313,526.7688293457031)"/>
<path d="M0 0 C10.30871529 6.06103407 16.15189936 16.18049427 19.94140625 27.34375 C22.62341324 38.51369957 19.91921626 49.28769998 14.62890625 59.20703125 C9.81926441 66.90818396 3.18789142 73.82324642 -5.37109375 77.20703125 C-6.36109375 77.20703125 -7.35109375 77.20703125 -8.37109375 77.20703125 C-8.12552734 78.43292969 -8.12552734 78.43292969 -7.875 79.68359375 C-7.30134769 83.69471301 -7.26107771 87.53951246 -7.30859375 91.58203125 C-7.31310547 92.31808594 -7.31761719 93.05414063 -7.32226562 93.8125 C-7.33394233 95.61071283 -7.35187364 97.40888322 -7.37109375 99.20703125 C-6.60667969 99.22121094 -5.84226562 99.23539062 -5.0546875 99.25 C7.19836139 99.79556295 20.24539003 102.80300524 29.62890625 111.20703125 C33.05975243 114.97294946 35.4838752 118.22148314 36.62890625 123.20703125 C37.50289062 123.19655762 38.376875 123.18608398 39.27734375 123.17529297 C71.39267549 122.84286225 103.96862995 123.51445979 134.62890625 134.20703125 C135.35239258 134.4582373 136.07587891 134.70944336 136.82128906 134.96826172 C159.35394263 142.94308254 179.21504087 154.78071967 196.62890625 171.20703125 C197.85205056 172.23507278 199.08074908 173.25656395 200.31640625 174.26953125 C204.17955662 177.578248 207.39159466 181.2929935 210.62890625 185.20703125 C211.28898682 185.99062012 211.28898682 185.99062012 211.96240234 186.79003906 C219.49825047 195.76044644 226.02102494 204.91712298 231.62890625 215.20703125 C231.97405273 215.83689941 232.31919922 216.46676758 232.67480469 217.11572266 C239.88148137 230.44299939 245.66350346 244.21420088 248.28100586 259.17724609 C249.42235538 267.68756289 249.42235538 267.68756289 254.21875 274.2734375 C257.35705793 275.23876002 260.3847122 275.72478619 263.62890625 276.20703125 C276.27413206 281.2968227 286.81961563 291.5417854 293.62890625 303.20703125 C294.09941406 303.99980469 294.56992187 304.79257812 295.0546875 305.609375 C298.98860216 313.14067475 299.94584969 321.02347056 301.05078125 329.33984375 C301.20293826 332.979326 301.20293826 332.979326 302.62890625 334.20703125 C303.75337764 340.94986505 303.80594196 347.63326038 303.83203125 354.45703125 C303.83773132 355.62854736 303.8434314 356.80006348 303.8493042 358.00708008 C303.858721 360.48143623 303.86527492 362.95580473 303.86914062 365.43017578 C303.87880332 369.16722231 303.90984195 372.90370825 303.94140625 376.640625 C303.99643732 389.17123167 303.78116609 401.02702725 300.62890625 413.20703125 C300.29487793 414.50616455 300.29487793 414.50616455 299.95410156 415.83154297 C295.398229 432.17157827 284.49238682 443.92615756 270.21069336 452.33666992 C264.92903894 455.26926183 259.58810856 457.12917137 253.62890625 458.20703125 C253.54253906 458.74328125 253.45617187 459.27953125 253.3671875 459.83203125 C247.84898288 490.61247535 231.99521855 517.86992907 210.0390625 539.79296875 C208.65964759 541.17461934 207.29692721 542.57457947 205.98828125 544.0234375 C172.12503462 580.76341624 115.28826346 590.48779448 68.09765625 592.578125 C63.63721522 592.75028132 59.17706594 592.88119736 54.71484375 592.99609375 C50.68889684 593.10923336 46.6989079 593.34342892 42.6862793 593.68603516 C35.33715322 594.26168151 27.99277563 594.55288554 20.625 594.75390625 C19.88301298 594.77459923 19.14102596 594.79529221 18.37655449 594.81661224 C-4.79326433 595.44065624 -27.97449289 595.42998525 -51.15111578 595.44585085 C-57.24526263 595.45010362 -63.33925401 595.46236469 -69.43334961 595.48828125 C-121.77620991 595.70588731 -121.77620991 595.70588731 -143.828125 593.83984375 C-144.55167616 593.77869637 -145.27522732 593.71754898 -146.02070427 593.65454865 C-159.00863582 592.51281844 -171.72280448 590.34931438 -184.37109375 587.20703125 C-185.15242676 587.01915039 -185.93375977 586.83126953 -186.73876953 586.63769531 C-211.64495971 580.51885463 -233.79218615 567.48788757 -253.37109375 551.20703125 C-254.0878125 550.63210938 -254.80453125 550.0571875 -255.54296875 549.46484375 C-260.01045806 545.80782816 -263.66059959 541.61464856 -267.37109375 537.20703125 C-268.49837891 535.94632813 -268.49837891 535.94632813 -269.6484375 534.66015625 C-277.05784008 526.18557889 -282.73708628 516.92709424 -288.37109375 507.20703125 C-288.72864746 506.60713379 -289.08620117 506.00723633 -289.45458984 505.38916016 C-296.63331554 493.34206257 -303.37109375 476.41777783 -303.37109375 462.20703125 C-304.21027344 462.22056641 -304.21027344 462.22056641 -305.06640625 462.234375 C-317.22175916 461.78490054 -328.88418294 454.62238295 -337.37109375 446.20703125 C-342.90181862 439.8113115 -347.62270754 433.24185421 -350.37109375 425.20703125 C-350.644375 424.43746094 -350.91765625 423.66789062 -351.19921875 422.875 C-355.66329851 408.62933369 -355.70862853 392.95507968 -355.63183594 378.15478516 C-355.62109407 375.70710512 -355.63183137 373.26015851 -355.64453125 370.8125 C-355.66679756 344.93114567 -353.40939769 317.68729582 -334.37109375 298.20703125 C-325.45628015 289.87657281 -314.09271859 280.99429505 -301.37109375 281.20703125 C-301.33516113 280.54856201 -301.29922852 279.89009277 -301.26220703 279.21166992 C-300.75300109 271.99707247 -299.33088785 265.43265448 -297.24609375 258.51953125 C-296.93333496 257.47079834 -296.62057617 256.42206543 -296.29833984 255.34155273 C-293.62800082 246.62045304 -290.43080374 238.36770845 -286.37109375 230.20703125 C-286.02820313 229.51029297 -285.6853125 228.81355469 -285.33203125 228.09570312 C-278.26729634 213.8772888 -269.71911117 201.28572754 -259.37109375 189.20703125 C-258.65179688 188.36398437 -257.9325 187.5209375 -257.19140625 186.65234375 C-219.09496094 143.1329169 -163.98736047 129.35273771 -108.53857422 125.453125 C-99.1608082 124.8546307 -89.75996704 124.93834468 -80.37109375 125.20703125 C-80.07460938 124.44132813 -79.778125 123.675625 -79.47265625 122.88671875 C-75.7868489 113.9205349 -69.18374042 108.18440369 -60.43359375 104.39453125 C-51.27075314 100.9039253 -44.5268082 100.20703125 -34.37109375 100.20703125 C-34.37109375 92.61703125 -34.37109375 85.02703125 -34.37109375 77.20703125 C-36.35109375 76.87703125 -38.33109375 76.54703125 -40.37109375 76.20703125 C-50.88810115 71.1473026 -58.07680639 61.82974208 -62.37109375 51.20703125 C-65.83396616 41.31311008 -65.68502858 30.41703869 -61.6328125 20.734375 C-55.33690357 8.12306517 -46.63968538 0.27226821 -33.51953125 -4.921875 C-21.45444645 -8.25998159 -10.75993865 -5.85844265 0 0 Z M-72.37109375 230.20703125 C-73.66122375 230.22872375 -74.95135376 230.25041626 -76.28057861 230.27276611 C-89.72782438 230.5007374 -103.17353763 230.76442931 -116.61865234 231.09521484 C-119.6423136 231.16872535 -122.66581695 231.23272253 -125.68994141 231.28369141 C-167.3598016 231.99394408 -200.38275742 240.74859458 -230.640625 270.43359375 C-266.37211673 307.85466564 -265.38978442 360.36893141 -264.43740845 408.60430908 C-264.19113377 418.27010857 -263.21484285 427.62104022 -261.18359375 437.08203125 C-260.96292236 438.11577881 -260.74225098 439.14952637 -260.51489258 440.21459961 C-253.3697102 472.30423552 -234.70395923 499.24814983 -206.84057617 516.96411133 C-188.44129463 528.27736801 -168.38720262 533.94519981 -146.90966797 535.31762695 C-145.6057353 535.40191861 -144.30180264 535.48621027 -142.95835686 535.57305622 C-128.01025153 536.48277605 -113.06398285 536.48372052 -98.09372187 536.44275069 C-94.07028588 536.43372185 -90.04685104 536.43573235 -86.02340698 536.43611145 C-79.27518734 536.43518493 -72.52701358 536.42664307 -65.77880859 536.4128418 C-58.07508668 536.39714037 -50.37141478 536.39184398 -42.667678 536.39257735 C-34.32583705 536.39326311 -25.98401432 536.38626632 -17.64217901 536.37713075 C-15.30041396 536.37504149 -12.95865203 536.37429548 -10.61688614 536.37389183 C17.45575429 536.36452118 45.48238017 535.77946919 73.50708008 534.01464844 C76.49052573 533.82897431 79.47462123 533.65849851 82.45898438 533.48828125 C91.69838197 532.93387117 100.85321852 532.19369284 110.00390625 530.7734375 C110.74393387 530.65928497 111.48396149 530.54513245 112.24641418 530.42752075 C136.41296184 526.38230727 158.07161448 513.9662643 175.62890625 497.20703125 C176.35335938 496.56894531 177.0778125 495.93085937 177.82421875 495.2734375 C200.38518889 474.53190044 210.21335587 442.88384194 212.62890625 413.20703125 C212.7883663 408.90499794 212.8163369 404.6054957 212.83203125 400.30078125 C212.83773132 399.06324097 212.8434314 397.82570068 212.8493042 396.55065918 C212.85872244 393.93173059 212.8652755 391.31279033 212.86914062 388.69384766 C212.87874015 384.77484027 212.90975051 380.85638222 212.94140625 376.9375 C213.12517304 333.91156951 205.76739744 294.70078015 175.00390625 263.08203125 C160.09665825 248.27459948 139.39307782 235.11073383 118.44140625 231.58203125 C117.07288935 231.33999816 115.70439912 231.09781421 114.3359375 230.85546875 C112.50095703 230.53449219 112.50095703 230.53449219 110.62890625 230.20703125 C109.900737 230.03132599 109.17256775 229.85562073 108.42233276 229.67459106 C104.68784782 229.04951821 101.00136935 229.06787579 97.22705078 229.07763672 C96.38596582 229.07590989 95.54488087 229.07418306 94.67830849 229.07240391 C91.87275889 229.06804651 89.06726917 229.07100857 86.26171875 229.07421875 C84.26515687 229.07316009 82.26859514 229.07177445 80.27203369 229.07008362 C74.88648124 229.06726778 69.50095823 229.07169226 64.11540985 229.07825851 C60.7520087 229.08203338 57.38861034 229.08409801 54.02520752 229.08572388 C11.8874176 229.10973368 -30.2396649 229.49138712 -72.37109375 230.20703125 Z " fill="#F2F7FD" transform="translate(631.37109375,297.79296875)"/>
<path d="M0 0 C2.36369891 0.52352713 4.72864903 0.99839965 7.10742188 1.44726562 C67.10350899 13.09434577 124.25671787 44.59277436 170.65429688 83.58789062 C171.69316233 84.43969349 172.73223469 85.29124408 173.77148438 86.14257812 C181.06924063 92.18962671 187.88713781 98.63971827 194.59179688 105.33789062 C195.38457031 106.1298584 196.17734375 106.92182617 196.99414062 107.73779297 C201.74345435 112.5322332 206.26702979 117.46172244 210.65429688 122.58789062 C211.63929506 123.71738928 212.62494572 124.84631935 213.61132812 125.97460938 C220.25395702 133.63081182 226.6396684 141.42598779 232.65429688 149.58789062 C233.11271973 150.20970215 233.57114258 150.83151367 234.04345703 151.47216797 C272.14753378 203.52839736 299.91051571 265.87685722 308.31884766 330.0859375 C308.67629464 332.75196129 309.06606846 335.41182775 309.46289062 338.07226562 C309.73506972 339.91080083 310.00720623 341.74934233 310.27929688 343.58789062 C310.46431763 344.82394043 310.46431763 344.82394043 310.65307617 346.08496094 C312.22025251 356.92613369 312.81152709 367.69007915 312.82226562 378.63867188 C312.82559402 379.85451462 312.82892242 381.07035736 312.83235168 382.32304382 C312.83738543 384.885362 312.83976112 387.44768665 312.83959961 390.01000977 C312.84176945 393.85184086 312.85991806 397.6933764 312.87890625 401.53515625 C312.92684712 421.99369581 311.67918528 442.06289377 308.46679688 462.27539062 C308.36369202 462.93479645 308.26058716 463.59420227 308.15435791 464.27359009 C306.06136169 477.53679472 302.94480312 490.45039178 299.47192383 503.42138672 C298.32576604 507.86022415 297.32338211 512.32826764 296.33227539 516.80395508 C295.60185787 519.80321721 294.6259475 522.57679589 293.47070312 525.43164062 C292.39290097 528.27827598 291.53315708 531.17395107 290.65429688 534.08789062 C289.37603531 538.3003435 288.03556439 542.44193202 286.44335938 546.54492188 C285.4368305 549.15093476 284.48344399 551.77476996 283.52929688 554.40039062 C283.19671875 555.31433594 282.86414063 556.22828125 282.52148438 557.16992188 C270.74094835 590.01745249 287.96857978 634.1070867 301.78735352 663.64672852 C307.2157756 675.03033661 313.06856792 686.15540969 319.19775391 697.17456055 C319.76478027 698.20299072 320.33180664 699.2314209 320.91601562 700.29101562 C321.42092529 701.1949707 321.92583496 702.09892578 322.44604492 703.03027344 C325.45017824 709.38939662 325.47255201 716.3956331 323.59179688 723.08789062 C321.10053497 729.79691688 316.7486087 734.85613599 310.34179688 738.08789062 C301.99632594 741.16175625 292.88940485 739.43844957 284.27929688 738.27539062 C282.85230469 738.0984668 282.85230469 738.0984668 281.39648438 737.91796875 C275.44221684 737.13345377 269.75082546 735.90499273 263.94384766 734.38842773 C256.74358666 732.63618966 249.41127357 731.44724355 242.11962891 730.13745117 C240.01853797 729.75862462 237.91844458 729.3745909 235.81835938 728.99023438 C234.58553223 728.76843506 233.35270508 728.54663574 232.08251953 728.31811523 C228.82530899 727.62431686 225.80746319 726.6452271 222.65429688 725.58789062 C220.80401568 725.22411817 218.94491115 724.90281228 217.08007812 724.62304688 C210.62711593 723.60352868 204.24104129 722.33636045 197.84179688 721.02539062 C188.2892678 719.06415655 188.2892678 719.06415655 178.65429688 717.58789062 C177.37554688 717.42289063 176.09679687 717.25789062 174.77929688 717.08789062 C169.12438039 717.19601522 165.73001957 721.05432197 161.65429688 724.58789062 C131.85221834 748.90357767 96.68968981 767.87463236 60.72290039 781.30932617 C57.50912202 782.51125531 54.30431422 783.72564565 51.11132812 784.98242188 C33.55933569 791.81133212 15.71526836 796.1396543 -2.72070312 799.83789062 C-3.57760742 800.01060486 -4.43451172 800.18331909 -5.31738281 800.36126709 C-28.5564756 805.01764578 -51.22678724 806.77485356 -74.9128418 806.77319336 C-78.37691714 806.77537096 -81.84066852 806.79356287 -85.3046875 806.8125 C-99.43791443 806.84814607 -113.30069345 806.13558358 -127.34570312 804.58789062 C-128.50368408 804.47276123 -129.66166504 804.35763184 -130.85473633 804.23901367 C-155.61303691 801.75257202 -179.63834725 796.03051185 -203.34570312 788.58789062 C-204.03164551 788.37358398 -204.71758789 788.15927734 -205.42431641 787.93847656 C-211.22239804 786.11140845 -216.76310668 783.9941822 -222.34570312 781.58789062 C-224.4064416 780.87444875 -226.46922393 780.16690216 -228.53320312 779.46289062 C-256.71713564 769.48919293 -284.96085564 754.81616531 -309.34570312 737.58789062 C-309.93254883 737.17829102 -310.51939453 736.76869141 -311.12402344 736.34667969 C-328.19450143 724.42990459 -344.20422653 711.49350577 -359.42382812 697.29101562 C-361.71611837 695.17034069 -364.03122138 693.11127178 -366.40820312 691.08789062 C-373.99131578 684.51693072 -381.10399316 677.25781342 -387.59570312 669.61132812 C-389.65675273 667.22823952 -391.81649929 664.94958895 -393.97070312 662.65039062 C-399.97325063 656.05846912 -405.30954868 649.0057587 -410.63818359 641.86474609 C-412.31748824 639.62551317 -414.01879919 637.40462711 -415.72460938 635.18554688 C-454.12633284 584.77745183 -481.5557981 521.6631058 -489.671875 458.6394043 C-490.09596111 455.36875831 -490.57382045 452.11488975 -491.10864258 448.8605957 C-493.55522244 433.48744111 -493.86039321 418.31889157 -493.78320312 402.77539062 C-493.78016174 401.47696228 -493.77712036 400.17853394 -493.77398682 398.84075928 C-493.70462001 378.79683559 -492.95542505 359.33772639 -489.34570312 339.58789062 C-489.11544434 338.31413574 -488.88518555 337.04038086 -488.64794922 335.72802734 C-485.94745929 321.16784052 -482.77491628 306.72439257 -478.34570312 292.58789062 C-478.04325684 291.61239258 -477.74081055 290.63689453 -477.42919922 289.63183594 C-472.06384729 272.49489668 -465.64945582 255.98656116 -458.34570312 239.58789062 C-457.99685059 238.79237793 -457.64799805 237.99686523 -457.28857422 237.17724609 C-443.67335961 206.2373444 -424.85442377 176.62476299 -403.34570312 150.58789062 C-402.22788978 149.21079423 -401.11076834 147.83313607 -399.99414062 146.45507812 C-398.75756539 144.93651995 -397.52058311 143.41829314 -396.28320312 141.90039062 C-395.70513916 141.18681396 -395.1270752 140.4732373 -394.53149414 139.73803711 C-391.19094774 135.66294015 -387.7270755 131.84450943 -383.93823242 128.1809082 C-382.26965268 126.51181687 -380.74283364 124.76573363 -379.22070312 122.96289062 C-372.30567382 114.95519303 -364.66599737 107.34098387 -356.59570312 100.49804688 C-354.76311495 98.94225587 -352.95727306 97.36549791 -351.15820312 95.77148438 C-328.37728734 75.65974753 -303.92990484 58.31254723 -277.34570312 43.58789062 C-276.34410156 43.03214355 -275.3425 42.47639648 -274.31054688 41.90380859 C-192.7949244 -2.89034073 -91.25851911 -20.61881899 0 0 Z M-133.34570312 35.58789062 C-134.86779812 35.81862617 -136.38993122 36.04911057 -137.91210938 36.27929688 C-142.08028523 36.94052505 -146.21100035 37.74474269 -150.34570312 38.58789062 C-151.18955566 38.75514648 -152.0334082 38.92240234 -152.90283203 39.09472656 C-208.28892037 50.15420176 -260.87227319 73.63973016 -305.34570312 108.58789062 C-306.70501953 109.64556641 -306.70501953 109.64556641 -308.09179688 110.72460938 C-310.53417946 112.65116076 -312.94541244 114.60916998 -315.34570312 116.58789062 C-316.32539063 117.39355469 -317.30507813 118.19921875 -318.31445312 119.02929688 C-333.9513519 132.01114548 -349.23505287 146.02954386 -362.34570312 161.58789062 C-363.15265625 162.51730469 -363.95960938 163.44671875 -364.79101562 164.40429688 C-389.91598225 193.45988441 -410.78647764 227.01992006 -425.34570312 262.58789062 C-425.61946777 263.24982422 -425.89323242 263.91175781 -426.17529297 264.59375 C-434.83520706 285.67612676 -441.87332874 307.23438608 -446.34570312 329.58789062 C-446.70597258 331.3054241 -447.06664802 333.02287246 -447.42773438 334.74023438 C-448.51158379 340.00493163 -449.44627178 345.28898274 -450.34570312 350.58789062 C-450.57435059 351.85608643 -450.57435059 351.85608643 -450.80761719 353.14990234 C-456.24076415 384.27608445 -455.88626285 419.50742458 -450.34570312 450.58789062 C-450.14170898 451.7619043 -449.93771484 452.93591797 -449.72753906 454.14550781 C-446.63061277 471.58656725 -442.5261935 488.65155126 -437.34570312 505.58789062 C-437.10964355 506.36245605 -436.87358398 507.13702148 -436.63037109 507.93505859 C-434.39984585 515.15841518 -431.81938381 522.11547902 -428.57617188 528.95117188 C-427.34387664 531.59180452 -426.24493234 534.25941337 -425.15820312 536.96289062 C-415.56826311 560.03218904 -403.69550559 582.130284 -389.34570312 602.58789062 C-388.55123636 603.74140154 -387.75696656 604.89504813 -386.96289062 606.04882812 C-380.55379162 615.27129881 -373.5361475 623.96705945 -366.34570312 632.58789062 C-365.55276855 633.55291504 -364.75983398 634.51793945 -363.94287109 635.51220703 C-357.65529333 643.11065213 -351.01108157 650.23671601 -344.01171875 657.18261719 C-342.33940649 658.84414666 -340.6781495 660.51619819 -339.01757812 662.18945312 C-332.44657958 668.76899842 -325.64759403 674.81450387 -318.34570312 680.58789062 C-317.00497054 681.69565572 -315.66739612 682.80726174 -314.33398438 683.92382812 C-305.35110747 691.37699051 -296.10528367 698.1893151 -286.34570312 704.58789062 C-285.6310791 705.06049316 -284.91645508 705.5330957 -284.18017578 706.02001953 C-268.33207232 716.45419624 -251.78349544 726.06378971 -234.34570312 733.58789062 C-232.65728432 734.37759583 -230.9696324 735.16894562 -229.28320312 735.96289062 C-219.27302107 740.51934604 -208.85811011 744.18031226 -198.40820312 747.58789062 C-195.50784575 748.53494609 -192.61856614 749.51185346 -189.72949219 750.49267578 C-180.47931304 753.61861439 -171.25814953 756.30805701 -161.65820312 758.12304688 C-159.63983487 758.52876617 -157.64517804 759.04904997 -155.65820312 759.58789062 C-150.53904179 760.92514093 -145.27370674 761.41417949 -140.02929688 762.02539062 C-136.34570312 762.58789063 -136.34570312 762.58789063 -132.94335938 763.58789062 C-114.98905346 768.57844688 -94.12920188 766.70257826 -75.65338135 766.76412964 C-73.60189392 766.77153363 -71.55041507 766.78212205 -69.4989624 766.7961731 C-35.15751806 767.009232 -2.01522638 760.500954 30.77929688 750.46289062 C31.8020874 750.1506958 32.82487793 749.83850098 33.87866211 749.5168457 C40.04855312 747.57142111 45.99429567 745.28545675 51.93408203 742.72241211 C54.56265313 741.62611253 57.20440968 740.67939477 59.90429688 739.77539062 C66.73430174 737.32911381 73.10530087 734.02019269 79.53515625 730.68652344 C80.93545586 729.96056166 82.33777441 729.23847952 83.7421875 728.52050781 C103.95475915 718.18690159 123.47343302 706.36756126 140.90429688 691.77539062 C153.27102742 681.46978183 164.59973476 676.8516766 180.65429688 677.58789062 C184.28334741 678.06367853 187.81463853 678.81802016 191.38085938 679.63476562 C192.39274323 679.8558197 193.40462708 680.07687378 194.44717407 680.30462646 C197.85260326 681.05257633 201.25340318 681.81959713 204.65429688 682.58789062 C206.55691134 683.01184444 208.45953023 683.43577916 210.36236191 683.85875702 C216.46674745 685.21589635 222.56898514 686.5825243 228.66992188 687.95507812 C229.35544003 688.10927971 230.04095818 688.26348129 230.7472496 688.42235565 C234.26597397 689.21435563 237.78419287 690.00852996 241.30175781 690.80566406 C244.78423077 691.59460404 248.26797594 692.3776986 251.75258255 693.1571579 C253.6798766 693.58996136 255.60575779 694.02904146 257.53158569 694.46832275 C264.23389484 695.96434283 270.79803161 697.12835047 277.65429688 697.58789062 C276.00975348 693.24159737 273.99062145 689.10944225 271.90429688 684.96289062 C271.37195435 683.89784302 271.37195435 683.89784302 270.82885742 682.8112793 C268.80270897 678.78224 266.69169885 674.82430866 264.46679688 670.90039062 C261.77290719 666.03682763 259.78838662 661.04208803 257.86914062 655.83007812 C256.72039395 652.76429118 255.45989158 649.77703826 254.15429688 646.77539062 C248.96571806 634.32606472 245.86641782 621.98335823 243.96289062 608.66748047 C243.6855311 606.79837568 243.36039151 604.93650984 243.02929688 603.07617188 C240.52711006 588.39320064 241.18118654 573.6342989 242.90429688 558.90039062 C243.01346436 557.92150879 243.12263184 556.94262695 243.23510742 555.93408203 C243.97326558 550.26793164 245.30942846 545.4140438 247.56640625 540.17114258 C249.58013954 535.38942986 251.14409259 530.44654725 252.77929688 525.52539062 C253.12605469 524.50123047 253.4728125 523.47707031 253.83007812 522.421875 C255.58571546 517.15832629 257.10903729 511.95903076 258.23339844 506.52563477 C258.80349454 503.90101017 259.62113855 501.38566125 260.46679688 498.83789062 C265.08750162 483.91472566 268.08688162 468.83101094 270.40429688 453.40039062 C270.51111786 452.68983521 270.61793884 451.97927979 270.72799683 451.24719238 C272.59573281 438.71689882 273.81677241 426.52807669 273.89257812 413.84960938 C273.90064987 412.53418655 273.90872162 411.21876373 273.91703796 409.86347961 C273.93198197 407.0789911 273.94185106 404.29452711 273.94946289 401.51000977 C273.95820449 398.72071687 273.97880673 395.93194158 274.01098633 393.14282227 C274.29693344 367.7552381 271.75014811 343.22900136 266.21679688 318.40039062 C265.91344758 317.00649199 265.61039329 315.61252912 265.30761719 314.21850586 C263.11725049 304.23373087 260.61089355 294.37334305 257.65429688 284.58789062 C257.25984375 283.16669922 257.25984375 283.16669922 256.85742188 281.71679688 C255.31160461 276.21196985 253.2291212 271.05035568 250.97460938 265.79882812 C249.57292751 262.39000417 248.35595296 258.94693751 247.15429688 255.46289062 C245.39719592 250.45047096 243.38814825 245.78777049 240.90625 241.09741211 C239.73179286 238.74323018 238.7723357 236.40360577 237.84570312 233.94335938 C235.67342682 228.44755607 233.00860976 223.31898601 230.15429688 218.15039062 C229.6323877 217.20099609 229.11047852 216.25160156 228.57275391 215.2734375 C217.60471854 195.53951951 204.90677832 177.0795724 190.65429688 159.58789062 C190.20344727 159.03117676 189.75259766 158.47446289 189.28808594 157.90087891 C181.88768339 148.84339545 173.77109373 140.49829151 165.52929688 132.21289062 C165.02427643 131.70260315 164.51925598 131.19231567 163.99893188 130.66656494 C157.97446206 124.59355112 151.82829062 118.89296626 145.12524414 113.55688477 C142.61130544 111.55363255 140.16236272 109.48626907 137.71679688 107.40039062 C109.25250228 84.12256004 75.91934006 66.19184042 41.57202148 53.33374023 C39.79286264 52.64178221 38.04386379 51.87360075 36.29882812 51.09960938 C0.39100032 36.20536569 -41.40871283 32.15440528 -79.90820312 32.27539062 C-81.05157135 32.27654877 -82.19493958 32.27770691 -83.37295532 32.27890015 C-100.23439685 32.31266815 -116.68158276 32.84233693 -133.34570312 35.58789062 Z " fill="#1F7EF6" transform="translate(689.345703125,199.412109375)"/>
<path d="M0 0 C10.30871529 6.06103407 16.15189936 16.18049427 19.94140625 27.34375 C22.62341324 38.51369957 19.91921626 49.28769998 14.62890625 59.20703125 C9.81926441 66.90818396 3.18789142 73.82324642 -5.37109375 77.20703125 C-6.36109375 77.20703125 -7.35109375 77.20703125 -8.37109375 77.20703125 C-8.12552734 78.43292969 -8.12552734 78.43292969 -7.875 79.68359375 C-7.30134769 83.69471301 -7.26107771 87.53951246 -7.30859375 91.58203125 C-7.31310547 92.31808594 -7.31761719 93.05414063 -7.32226562 93.8125 C-7.33394233 95.61071283 -7.35187364 97.40888322 -7.37109375 99.20703125 C-6.60667969 99.22121094 -5.84226562 99.23539062 -5.0546875 99.25 C7.19836139 99.79556295 20.24539003 102.80300524 29.62890625 111.20703125 C33.05975243 114.97294946 35.4838752 118.22148314 36.62890625 123.20703125 C37.50289062 123.19655762 38.376875 123.18608398 39.27734375 123.17529297 C71.39267549 122.84286225 103.96862995 123.51445979 134.62890625 134.20703125 C135.35239258 134.4582373 136.07587891 134.70944336 136.82128906 134.96826172 C159.35394263 142.94308254 179.21504087 154.78071967 196.62890625 171.20703125 C197.85205056 172.23507278 199.08074908 173.25656395 200.31640625 174.26953125 C204.17955662 177.578248 207.39159466 181.2929935 210.62890625 185.20703125 C211.28898682 185.99062012 211.28898682 185.99062012 211.96240234 186.79003906 C219.49825047 195.76044644 226.02102494 204.91712298 231.62890625 215.20703125 C231.97405273 215.83689941 232.31919922 216.46676758 232.67480469 217.11572266 C239.88148137 230.44299939 245.66350346 244.21420088 248.28100586 259.17724609 C249.42235538 267.68756289 249.42235538 267.68756289 254.21875 274.2734375 C257.35705793 275.23876002 260.3847122 275.72478619 263.62890625 276.20703125 C276.27413206 281.2968227 286.81961563 291.5417854 293.62890625 303.20703125 C294.09941406 303.99980469 294.56992187 304.79257812 295.0546875 305.609375 C298.98860216 313.14067475 299.94584969 321.02347056 301.05078125 329.33984375 C301.20293826 332.979326 301.20293826 332.979326 302.62890625 334.20703125 C303.75337764 340.94986505 303.80594196 347.63326038 303.83203125 354.45703125 C303.83773132 355.62854736 303.8434314 356.80006348 303.8493042 358.00708008 C303.858721 360.48143623 303.86527492 362.95580473 303.86914062 365.43017578 C303.87880332 369.16722231 303.90984195 372.90370825 303.94140625 376.640625 C303.99643732 389.17123167 303.78116609 401.02702725 300.62890625 413.20703125 C300.29487793 414.50616455 300.29487793 414.50616455 299.95410156 415.83154297 C295.398229 432.17157827 284.49238682 443.92615756 270.21069336 452.33666992 C264.92903894 455.26926183 259.58810856 457.12917137 253.62890625 458.20703125 C253.54253906 458.74328125 253.45617187 459.27953125 253.3671875 459.83203125 C247.84898288 490.61247535 231.99521855 517.86992907 210.0390625 539.79296875 C208.65964759 541.17461934 207.29692721 542.57457947 205.98828125 544.0234375 C172.12503462 580.76341624 115.28826346 590.48779448 68.09765625 592.578125 C63.63721522 592.75028132 59.17706594 592.88119736 54.71484375 592.99609375 C50.68889684 593.10923336 46.6989079 593.34342892 42.6862793 593.68603516 C35.33715322 594.26168151 27.99277563 594.55288554 20.625 594.75390625 C19.88301298 594.77459923 19.14102596 594.79529221 18.37655449 594.81661224 C-4.79326433 595.44065624 -27.97449289 595.42998525 -51.15111578 595.44585085 C-57.24526263 595.45010362 -63.33925401 595.46236469 -69.43334961 595.48828125 C-121.77620991 595.70588731 -121.77620991 595.70588731 -143.828125 593.83984375 C-144.55167616 593.77869637 -145.27522732 593.71754898 -146.02070427 593.65454865 C-159.00863582 592.51281844 -171.72280448 590.34931438 -184.37109375 587.20703125 C-185.15242676 587.01915039 -185.93375977 586.83126953 -186.73876953 586.63769531 C-211.64495971 580.51885463 -233.79218615 567.48788757 -253.37109375 551.20703125 C-254.0878125 550.63210938 -254.80453125 550.0571875 -255.54296875 549.46484375 C-260.01045806 545.80782816 -263.66059959 541.61464856 -267.37109375 537.20703125 C-268.49837891 535.94632813 -268.49837891 535.94632813 -269.6484375 534.66015625 C-277.05784008 526.18557889 -282.73708628 516.92709424 -288.37109375 507.20703125 C-288.72864746 506.60713379 -289.08620117 506.00723633 -289.45458984 505.38916016 C-296.63331554 493.34206257 -303.37109375 476.41777783 -303.37109375 462.20703125 C-304.21027344 462.22056641 -304.21027344 462.22056641 -305.06640625 462.234375 C-317.22175916 461.78490054 -328.88418294 454.62238295 -337.37109375 446.20703125 C-342.90181862 439.8113115 -347.62270754 433.24185421 -350.37109375 425.20703125 C-350.644375 424.43746094 -350.91765625 423.66789062 -351.19921875 422.875 C-355.66329851 408.62933369 -355.70862853 392.95507968 -355.63183594 378.15478516 C-355.62109407 375.70710512 -355.63183137 373.26015851 -355.64453125 370.8125 C-355.66679756 344.93114567 -353.40939769 317.68729582 -334.37109375 298.20703125 C-325.45628015 289.87657281 -314.09271859 280.99429505 -301.37109375 281.20703125 C-301.33516113 280.54856201 -301.29922852 279.89009277 -301.26220703 279.21166992 C-300.75300109 271.99707247 -299.33088785 265.43265448 -297.24609375 258.51953125 C-296.93333496 257.47079834 -296.62057617 256.42206543 -296.29833984 255.34155273 C-293.62800082 246.62045304 -290.43080374 238.36770845 -286.37109375 230.20703125 C-286.02820313 229.51029297 -285.6853125 228.81355469 -285.33203125 228.09570312 C-278.26729634 213.8772888 -269.71911117 201.28572754 -259.37109375 189.20703125 C-258.65179688 188.36398437 -257.9325 187.5209375 -257.19140625 186.65234375 C-219.09496094 143.1329169 -163.98736047 129.35273771 -108.53857422 125.453125 C-99.1608082 124.8546307 -89.75996704 124.93834468 -80.37109375 125.20703125 C-80.07460938 124.44132813 -79.778125 123.675625 -79.47265625 122.88671875 C-75.7868489 113.9205349 -69.18374042 108.18440369 -60.43359375 104.39453125 C-51.27075314 100.9039253 -44.5268082 100.20703125 -34.37109375 100.20703125 C-34.37109375 92.61703125 -34.37109375 85.02703125 -34.37109375 77.20703125 C-36.35109375 76.87703125 -38.33109375 76.54703125 -40.37109375 76.20703125 C-50.88810115 71.1473026 -58.07680639 61.82974208 -62.37109375 51.20703125 C-65.83396616 41.31311008 -65.68502858 30.41703869 -61.6328125 20.734375 C-55.33690357 8.12306517 -46.63968538 0.27226821 -33.51953125 -4.921875 C-21.45444645 -8.25998159 -10.75993865 -5.85844265 0 0 Z M-58.96875 128.6640625 C-59.78956684 128.68427837 -60.61038368 128.70449425 -61.45607376 128.72532272 C-118.31485007 130.16564077 -179.80116579 132.12521324 -227.37109375 167.20703125 C-227.95407227 167.63064941 -228.53705078 168.05426758 -229.13769531 168.49072266 C-259.30313463 190.5871147 -286.95915936 227.26542529 -292.9140625 265.0234375 C-293.37109375 267.20703125 -293.37109375 267.20703125 -294.32568359 269.43481445 C-295.49854278 272.54500036 -296.03768828 275.46258148 -296.5546875 278.74609375 C-296.75868164 280.03588135 -296.96267578 281.32566895 -297.17285156 282.65454102 C-297.3854224 284.04693765 -297.59732107 285.43943705 -297.80859375 286.83203125 C-297.91747925 287.53866913 -298.02636475 288.24530701 -298.1385498 288.97335815 C-300.29508061 303.00167405 -302.10104523 317.06869321 -303.37109375 331.20703125 C-303.46825684 332.24754639 -303.56541992 333.28806152 -303.66552734 334.36010742 C-304.71178548 347.34944844 -304.52357972 360.37270544 -304.49609375 373.39453125 C-304.49487518 374.63949371 -304.49365662 375.88445618 -304.49240112 377.16714478 C-305.33249053 406.34020628 -305.33249053 406.34020628 -302.37109375 435.20703125 C-302.2226718 437.30967561 -302.09999878 439.41421747 -301.99609375 441.51953125 C-299.04861954 483.92796611 -279.40545813 521.18116186 -247.99609375 549.3359375 C-225.54553635 568.10794073 -198.03606566 580.03745589 -169.37109375 585.20703125 C-168.6140918 585.34737793 -167.85708984 585.48772461 -167.07714844 585.63232422 C-153.39062089 588.05818265 -139.56345941 588.67947994 -125.703125 589.28125 C-124.71214373 589.32480433 -123.72116245 589.36835865 -122.70015144 589.4132328 C-99.47121096 590.40985135 -76.25932305 590.4767935 -53.01300049 590.40264893 C-48.72120106 590.39177657 -44.4294327 590.39223019 -40.13762188 590.39264679 C-6.79869174 590.39193448 26.54791559 590.21155478 59.81640625 587.83203125 C60.75485382 587.76700409 61.69330139 587.70197693 62.66018677 587.63497925 C77.70262075 586.58933487 92.70088927 585.38348677 107.62890625 583.20703125 C108.57088867 583.07216309 109.51287109 582.93729492 110.48339844 582.79833984 C154.60087432 576.25990367 194.98478462 554.45462414 222.04101562 518.63134766 C226.84344073 512.10441536 230.93192439 505.42145059 234.62890625 498.20703125 C234.93521973 497.61212891 235.2415332 497.01722656 235.55712891 496.40429688 C253.87013261 460.4094426 254.24574401 417.27790857 254.07553482 377.65597534 C254.06622088 375.34860836 254.06185745 373.04126907 254.05819702 370.73388672 C254.00234184 345.40281698 253.01192124 320.33934406 249.62890625 295.20703125 C249.52753357 294.44749146 249.42616089 293.68795166 249.32171631 292.90539551 C247.36255331 278.38162221 244.90490016 264.2592602 240.62890625 250.20703125 C240.41105469 249.4696875 240.19320312 248.73234375 239.96875 247.97265625 C233.70177645 227.00760085 223.01731891 207.70899606 208.62890625 191.20703125 C207.81035156 190.26730469 206.99179687 189.32757813 206.1484375 188.359375 C171.63330833 149.43091891 127.06218319 133.85244416 76.40600586 129.5324707 C74.42715439 129.36197048 72.44818313 129.18554428 70.47589111 128.9510498 C60.53347808 127.8511007 50.54713849 128.062666 40.55859375 128.07421875 C38.47535186 128.07354251 36.39211004 128.07256985 34.30886841 128.07131958 C29.93295544 128.06984785 25.55706292 128.07197374 21.18115234 128.07666016 C15.70565316 128.08225209 10.2302037 128.07904601 4.75470638 128.07322025 C-16.49144541 128.05405494 -37.72835138 128.13614265 -58.96875 128.6640625 Z " fill="#2080F8" transform="translate(631.37109375,297.79296875)"/>
<path d="M0 0 C9.41494465 4.73414356 17.28321597 13.03517202 20.8828125 23.01171875 C26.04457315 39.12762303 27.03874053 56.76610069 21.8828125 73.01171875 C21.604375 73.90246094 21.3259375 74.79320312 21.0390625 75.7109375 C17.72694303 85.03341169 11.48497823 93.40838234 2.70703125 98.19921875 C-4.59683032 101.55410253 -12.0518147 102.60013768 -19.8203125 100.1640625 C-31.11787753 95.05243415 -37.81326639 85.74904138 -42.1171875 74.3671875 C-47.67504609 56.97215893 -47.10980452 35.04381701 -39.3046875 18.51171875 C-31.16377777 3.626624 -17.32542881 -5.49289911 0 0 Z " fill="#E1EEFC" transform="translate(500.1171875,617.98828125)"/>
<path d="M0 0 C2.99688363 0.44953254 3.60957079 1.07364999 5.5 3.375 C6.29614258 5.36108398 6.29614258 5.36108398 6.89453125 7.62109375 C7.12446777 8.45278076 7.3544043 9.28446777 7.59130859 10.14135742 C7.82930176 11.02283447 8.06729492 11.90431152 8.3125 12.8125 C12.87430622 28.7134501 18.96965869 41.07637473 33.5703125 49.8125 C40.68458449 53.60677839 48.16456137 56.41338659 55.85546875 58.796875 C57.5 59.375 57.5 59.375 58.5 60.375 C58.875 63.25 58.875 63.25 58.5 66.375 C55.04471004 68.92563223 51.61651885 70.0341225 47.5 71.125 C32.59401791 75.57656026 20.81568075 83.15448756 13.25024414 96.87573242 C9.38025324 104.24906282 6.2281849 111.94643039 4.3125 120.0625 C3.5 123.375 3.5 123.375 1.5 125.375 C-2.125 125.5 -2.125 125.5 -5.5 125.375 C-5.891875 124.199375 -6.28375 123.02375 -6.6875 121.8125 C-6.96335937 120.99394531 -7.23921875 120.17539062 -7.5234375 119.33203125 C-8.23754598 117.16971077 -8.92683183 114.99914847 -9.6015625 112.82421875 C-14.51902756 97.14220394 -20.99401242 84.84493906 -35.5 76.375 C-41.75406279 73.34380271 -48.13524736 70.75535512 -54.75 68.625 C-58.5 67.375 -58.5 67.375 -60.5 65.375 C-60.8125 62.9375 -60.8125 62.9375 -60.5 60.375 C-58.37577367 57.70322465 -56.58249879 56.91295152 -53.3125 56.125 C-38.16678456 51.84517119 -24.32971143 45.45413125 -16.09375 31.4296875 C-11.7593894 23.12216302 -8.25817796 14.74714079 -6.23828125 5.58203125 C-5.06888405 2.08621423 -3.66261746 0.54939262 0 0 Z " fill="#2281F7" transform="translate(1002.5,254.625)"/>
<path d="M0 0 C2.93453261 0.36681658 3.86437246 0.86437246 6 3 C6.51816299 4.69114734 6.96748233 6.40383715 7.375 8.125 C9.4158278 15.96013787 12.36199014 24.03846823 19.453125 28.56640625 C24.55957759 31.46145792 29.33326426 33.55317385 35 35 C35.66 35.66 36.32 36.32 37 37 C36.625 39.625 36.625 39.625 36 42 C35.24976563 42.20753906 34.49953125 42.41507812 33.7265625 42.62890625 C24.14512853 45.51299028 15.08588687 49.51499812 10.01953125 58.609375 C8.27219316 62.70658154 7.06480005 66.94954196 5.89453125 71.2421875 C5 74 5 74 3 76 C0.375 76.125 0.375 76.125 -2 76 C-2.17015625 75.46632813 -2.3403125 74.93265625 -2.515625 74.3828125 C-3.3189557 71.91299792 -4.15795538 69.45687477 -5 67 C-5.26683594 66.17242187 -5.53367187 65.34484375 -5.80859375 64.4921875 C-8.54445623 56.73449744 -12.59208685 50.34402645 -20.01171875 46.3984375 C-22.98031495 45.14965533 -25.95488893 44.04583815 -29 43 C-30.66994577 42.34159028 -32.33777069 41.67765473 -34 41 C-34 39.35 -34 37.7 -34 36 C-33.19949219 35.65388672 -33.19949219 35.65388672 -32.3828125 35.30078125 C-29.912853 34.21963981 -27.45479524 33.11515772 -25 32 C-24.12601563 31.60296875 -23.25203125 31.2059375 -22.3515625 30.796875 C-13.19022872 26.45005597 -8.88266709 21.31034013 -5 12 C-4.14147274 9.35809423 -3.36945782 6.72084258 -2.67578125 4.03125 C-2 2 -2 2 0 0 Z " fill="#42CDED" transform="translate(1051,383)"/>
<path d="M0 0 C7.75335746 6.09358184 14.7502987 13.71509351 16.109375 23.73828125 C15.5198266 27.64403942 14.37655022 29.28360603 11.609375 32.05078125 C8.47066312 33.62013719 6.07081678 33.40279228 2.609375 33.05078125 C-0.81580193 30.50181237 -2.51637719 27.93413173 -4.203125 24.11328125 C-7.14258377 17.88162866 -12.45862784 14.57578902 -18.765625 12.17578125 C-27.64004153 9.63370996 -35.29393681 10.68157346 -43.390625 15.05078125 C-48.92603685 18.55836896 -51.91914191 23.0902883 -55.03125 28.78125 C-56.33386913 30.95602505 -57.39931375 32.49042542 -59.390625 34.05078125 C-64.27508453 34.68103409 -66.27106669 34.79715346 -70.390625 32.05078125 C-72.39841205 29.03910067 -73.24796435 27.06557334 -73 23.421875 C-69.79442249 10.94889073 -59.71996517 1.87931262 -49.08984375 -4.47265625 C-33.12748931 -13.20459543 -14.64752793 -9.88496466 0 0 Z " fill="#F6F7F9" transform="translate(741.390625,655.94921875)"/>
<path d="M0 0 C4.89187495 1.22296874 7.7618263 4.42864953 10.3125 8.5625 C13.64929318 13.23401046 18.39820294 16.07410147 23.5 18.625 C37.64266271 19.67100291 37.64266271 19.67100291 50.5 14.625 C51.06847656 14.23957031 51.63695312 13.85414063 52.22265625 13.45703125 C55.84837842 10.70433309 58.0970061 7.4366455 60.5 3.625 C61.8125 1.75 61.8125 1.75 63.5 0.625 C67.83453498 -0.01715333 69.78670848 0.13935471 73.4375 2.625 C75.5766808 5.73653571 76.23501345 7.72258451 75.9921875 11.5078125 C75.08085348 15.42799537 72.9032868 18.45645609 70.5 21.625 C69.89027344 22.45515625 69.28054688 23.2853125 68.65234375 24.140625 C62.29725274 31.47608395 51.13187742 37.19505741 41.5 38.625 C22.69103889 39.83282802 22.69103889 39.83282802 14.5 35.625 C13.05560547 34.91150391 13.05560547 34.91150391 11.58203125 34.18359375 C2.97947405 29.57775257 -5.2404189 23.20001949 -8.5 13.625 C-9.08533261 10.58368419 -8.95738645 8.82670514 -8.5 5.625 C-6.29954421 2.58103616 -3.67243587 0.91810897 0 0 Z " fill="#F6F7F9" transform="translate(567.5,711.375)"/>
<path d="M0 0 C0 0.66 0 1.32 0 2 C-0.99 2 -1.98 2 -3 2 C-3 3.32 -3 4.64 -3 6 C-3.98581055 6.10022461 -4.97162109 6.20044922 -5.98730469 6.30371094 C-46.52349429 10.45973921 -85.35097953 17.16224423 -119 42 C-119.5882959 42.42893555 -120.1765918 42.85787109 -120.78271484 43.29980469 C-150.59305532 65.22084546 -177.65622485 101.49056853 -183.54296875 138.81640625 C-184 141 -184 141 -184.98046875 143.4140625 C-186.08433542 146.21390824 -186.62498715 148.84813808 -187.125 151.8125 C-187.29257812 152.78832031 -187.46015625 153.76414062 -187.6328125 154.76953125 C-187.75398438 155.50558594 -187.87515625 156.24164062 -188 157 C-188.66 157 -189.32 157 -190 157 C-193.63368338 147.16768027 -190.75906785 137.96665054 -187.625 128.3125 C-187.2755835 127.23250732 -186.92616699 126.15251465 -186.56616211 125.03979492 C-171.52712814 80.2164879 -140.19999795 43.19549123 -97.94140625 21.94140625 C-67.57012312 7.00885871 -33.80696173 0 0 0 Z " fill="#2F8AF9" transform="translate(523,424)"/>
<path d="M0 0 C3.44540417 2.89254728 6.72880042 5.91431269 10 9 C11.22314431 10.02804153 12.45184283 11.0495327 13.6875 12.0625 C17.55065037 15.37121675 20.76268841 19.08596225 24 23 C24.44005371 23.52239258 24.88010742 24.04478516 25.33349609 24.58300781 C32.86934422 33.55341519 39.39211869 42.71009173 45 53 C45.51771973 53.94480225 45.51771973 53.94480225 46.04589844 54.90869141 C64.92305126 89.81813036 64.92305126 89.81813036 62.5625 102.31640625 C62.376875 102.87199219 62.19125 103.42757812 62 104 C61.67 103.34 61.34 102.68 61 102 C60.34 103.65 59.68 105.3 59 107 C58.67 107 58.34 107 58 107 C57.67128906 105.45505859 57.67128906 105.45505859 57.3359375 103.87890625 C47.96342377 61.2066407 23.56140223 21.99983885 -13.41796875 -2.171875 C-45.37096001 -22.28441772 -77.04950822 -28.83251972 -114 -32 C-117.66705454 -32.32912861 -121.33360804 -32.66357701 -125 -33 C-124.67 -34.32 -124.34 -35.64 -124 -37 C-80.83227365 -42.57002921 -33.86033632 -26.40080435 0 0 Z " fill="#2F8AF8" transform="translate(818,460)"/>
<path d="M0 0 C1.80610102 2.70915153 2.83234867 5.14172351 3.90161133 8.19018555 C16.71977808 44.68929892 44.57185412 74.58475313 79.10595703 91.67138672 C94.21506482 98.87309688 109.52577047 104.02896025 126 107 C126.75700195 107.14034668 127.51400391 107.28069336 128.29394531 107.42529297 C150.21950405 111.31147238 172.80265034 111.2175227 195 112 C195 112.33 195 112.66 195 113 C193.85660156 113.04898438 192.71320313 113.09796875 191.53515625 113.1484375 C190.04424527 113.22345189 188.55336108 113.29900028 187.0625 113.375 C186.30775391 113.4059375 185.55300781 113.436875 184.77539062 113.46875 C182.84492605 113.5726315 180.92057919 113.77895614 179 114 C178.67 114.66 178.34 115.32 178 116 C181.96 116.33 185.92 116.66 190 117 C190 117.33 190 117.66 190 118 C178.27273997 118.15865201 166.68829414 117.77454358 155 116.8125 C153.80159485 116.7155484 153.80159485 116.7155484 152.57897949 116.61663818 C138.47270197 115.44982437 124.75396186 113.41697137 111 110 C110.21866699 109.81211914 109.43733398 109.62423828 108.63232422 109.43066406 C83.72613404 103.31182338 61.5789076 90.28085632 42 74 C40.92492187 73.13761719 40.92492187 73.13761719 39.828125 72.2578125 C35.36063569 68.60079691 31.71049416 64.40761731 28 60 C27.24847656 59.15953125 26.49695313 58.3190625 25.72265625 57.453125 C14.5421015 44.66525511 3.5817265 28.11276715 -2 12 C-1.625 9.6875 -1.625 9.6875 -1 8 C-0.34 8 0.32 8 1 8 C0.67 5.36 0.34 2.72 0 0 Z " fill="#2881F5" transform="translate(336,775)"/>
<path d="M0 0 C23.0994811 -0.08346058 46.18939454 0.14373281 69.28643799 0.46356201 C73.78664137 0.52541585 78.28687672 0.58485244 82.78710938 0.64453125 C91.52477138 0.76074063 100.26239625 0.87949001 109 1 C109 1.33 109 1.66 109 2 C114.61 2.33 120.22 2.66 126 3 C126 3.33 126 3.66 126 4 C119.13109263 4.80971247 112.37757474 5.1445678 105.46411133 5.12939453 C103.96187515 5.13202301 103.96187515 5.13202301 102.42929077 5.13470459 C99.14685284 5.13907436 95.86446965 5.13620123 92.58203125 5.1328125 C90.27813202 5.1334872 87.97423285 5.13445862 85.67033386 5.13571167 C80.84979573 5.13718228 76.02927619 5.13505557 71.20874023 5.13037109 C65.06739467 5.1246903 58.92609297 5.12794642 52.78474903 5.13394356 C48.02745746 5.13758013 43.27017604 5.13639616 38.51288414 5.13381577 C36.25054608 5.1331542 33.98820707 5.1339476 31.72587013 5.13629532 C19.77432569 5.14597339 7.91194339 5.04744173 -4 4 C-3.01 3.67 -2.02 3.34 -1 3 C-0.67 2.01 -0.34 1.02 0 0 Z " fill="#147BF4" transform="translate(515,888)"/>
<path d="M0 0 C2.5 0.375 2.5 0.375 4.375 1.375 C6.26006648 4.72622929 5.48811175 7.84264842 4.5 11.375 C2.67301469 15.7355747 0.86786448 20.00713552 -2.5 23.375 C-4.9375 23.75 -4.9375 23.75 -7.5 23.375 C-9.375 21.8125 -9.375 21.8125 -10.5 19.375 C-10.37830427 13.16851768 -8.08152505 6.42092638 -4.0234375 1.6328125 C-2.5 0.375 -2.5 0.375 0 0 Z " fill="#47AFF5" transform="translate(433.5,733.625)"/>
<path d="M0 0 C1.6953125 1.26171875 1.6953125 1.26171875 3 3 C3.53480551 8.89448684 1.32659805 14.69535644 -1 20 C-3 22 -3 22 -6.5 22.3125 C-7.655 22.209375 -8.81 22.10625 -10 22 C-12.41077095 18.38384358 -12.38939188 17.28331067 -12 13 C-8.79363877 -1.09920485 -8.79363877 -1.09920485 0 0 Z " fill="#4AB0F5" transform="translate(781,731)"/>
<path d="M0 0 C2.625 0.25 2.625 0.25 4.29296875 1.5078125 C5.98348234 3.71886547 5.90970745 4.64624285 5.5625 7.375 C4.71373864 13.13714655 2.80107594 19.07392406 -1.375 23.25 C-4.20582239 23.61292595 -5.72599012 23.74477459 -8.03515625 21.984375 C-9.72150786 19.80145922 -9.68973453 18.89716759 -9.375 16.1875 C-8.6221791 10.97763716 -6.04279738 0.63608393 0 0 Z " fill="#48ADF4" transform="translate(451.375,733.75)"/>
<path d="M0 0 C2.5 0.375 2.5 0.375 4.3125 1.375 C6.24036331 4.62192767 6.07880246 7.76526422 5.5 11.375 C4.09466164 15.51843892 2.61625112 19.25874888 -0.5 22.375 C-3.5 22.625 -3.5 22.625 -6.5 22.375 C-8.5 20.375 -8.5 20.375 -8.8125 16.8125 C-8.67688099 11.50398428 -7.51225693 5.78862354 -4.05078125 1.63671875 C-2.5 0.375 -2.5 0.375 0 0 Z " fill="#48B0F5" transform="translate(759.5,730.625)"/>
<path d="M0 0 C3.0625 0.375 3.0625 0.375 4.7578125 2.0625 C7.14483008 6.29338145 6.06426759 10.78411807 5.0625 15.375 C3.79747345 18.10618704 2.20363304 20.23386696 0.0625 22.375 C-2.63719684 22.65917861 -4.34885091 22.69977191 -6.75 21.375 C-9.07834167 17.45358245 -8.3819437 13.16417078 -7.328125 8.921875 C-4.69722679 0.59964597 -4.69722679 0.59964597 0 0 Z " fill="#48B0F5" transform="translate(796.9375,730.625)"/>
<path d="M0 0 C1.175625 0.0825 2.35125 0.165 3.5625 0.25 C5.5625 3.25 5.5625 3.25 5.4375 5.75 C2.22916667 18.58333333 2.22916667 18.58333333 -1.4375 22.25 C-4.17776253 22.60131571 -5.81363976 22.59419875 -8.25 21.25 C-10.19819442 17.96883046 -10.11228738 14.88534102 -9.4375 11.25 C-5.0628306 0.36820586 -5.0628306 0.36820586 0 0 Z " fill="#46AFF5" transform="translate(414.4375,734.75)"/>
<path d="M0 0 C2.33991708 3.65612044 2.37437949 6.73207376 2 11 C0.36456714 14.5979523 -1.44909944 17.17382257 -5 19 C-8.0625 19 -8.0625 19 -11 18 C-13.10740054 15.75663813 -13.90298037 14.14344558 -14.1640625 11.06640625 C-13.95826757 6.87927104 -13.21005168 5.24005906 -10.375 2 C-6.54062066 -0.27222479 -4.37952326 -0.43795233 0 0 Z " fill="#FBFCFD" transform="translate(480,633)"/>
<path d="M0 0 C-0.99 0.66 -1.98 1.32 -3 2 C8.385 2.99 8.385 2.99 20 4 C20 4.33 20 4.66 20 5 C3.96441655 5.12488772 -11.98809891 4.89846339 -28 4 C-28 3.67 -28 3.34 -28 3 C-52.09 2.67 -76.18 2.34 -101 2 C-101 1.67 -101 1.34 -101 1 C-90.19372133 0.86847913 -79.38743044 0.73801488 -68.58112335 0.60884857 C-63.5617257 0.54882028 -58.54233272 0.4884468 -53.52294922 0.42724609 C-48.6664782 0.3680451 -43.80999651 0.3098009 -38.95350647 0.25218201 C-37.11344504 0.23019012 -35.27338749 0.20787062 -33.43333435 0.18519592 C-22.2881155 0.04811033 -11.14613771 -0.0307083 0 0 Z " fill="#2F8BF6" transform="translate(647,887)"/>
<path d="M0 0 C1.21558594 -0.00386719 2.43117188 -0.00773438 3.68359375 -0.01171875 C10.56038261 -0.00430042 17.30055715 0.25987427 24.125 1.125 C24.125 1.455 24.125 1.785 24.125 2.125 C22.475 2.455 20.825 2.785 19.125 3.125 C19.125 3.455 19.125 3.785 19.125 4.125 C14.72922496 4.18401588 10.33355438 4.21893248 5.9375 4.25 C4.71095703 4.26675781 3.48441406 4.28351562 2.22070312 4.30078125 C-6.00199648 4.3441728 -13.79147512 3.63211226 -21.875 2.125 C-21.875 1.795 -21.875 1.465 -21.875 1.125 C-14.57732306 -0.02151782 -7.37645245 -0.02331861 0 0 Z " fill="#1179F5" transform="translate(660.875,886.875)"/>
<path d="M0 0 C-1.125 1.4375 -1.125 1.4375 -3 3 C-3.886875 3.103125 -4.77375 3.20625 -5.6875 3.3125 C-10.38669348 4.28780431 -13.36175123 6.9804382 -17 10 C-16.71125 10.825 -16.4225 11.65 -16.125 12.5 C-15.94068845 17.66072331 -18.71065351 20.24347096 -22 24 C-22.66 23.67 -23.32 23.34 -24 23 C-24 22.34 -24 21.68 -24 21 C-24.66 21 -25.32 21 -26 21 C-26 21.66 -26 22.32 -26 23 C-26.66 23 -27.32 23 -28 23 C-24.12795587 12.81134932 -18.28018597 6.71088368 -9 1 C-5.8035914 -0.06546953 -3.34252724 -0.07427838 0 0 Z " fill="#8EC1F6" transform="translate(488,617)"/>
<path d="M0 0 C3.83533032 0.59483132 6.03665842 2.37768123 9 4.8125 C9.845625 5.49957031 10.69125 6.18664062 11.5625 6.89453125 C16.14968296 10.85685756 16.14968296 10.85685756 18 13 C18.25 16.75 18.25 16.75 18 20 C13.33674289 16.67840625 8.85837071 13.15018616 4.5 9.4375 C3.6440625 8.71433594 2.788125 7.99117188 1.90625 7.24609375 C0 5 0 5 -0.28125 2.22265625 C-0.1884375 1.48917969 -0.095625 0.75570313 0 0 Z " fill="#247FF5" transform="translate(811,457)"/>
<path d="M0 0 C3.9659665 4.55391301 3.98301492 9.148641 4 15 C3.25777918 19.53579388 2.56751371 20.56868958 -1.125 23.375 C-2.07375 23.91125 -3.0225 24.4475 -4 25 C-5.67014035 21.6597193 -4.00704099 18.22559197 -3.125 14.75 C-1.90572838 9.8476872 -0.74878834 5.00254337 0 0 Z " fill="#2B86F8" transform="translate(880,749)"/>
<path d="M0 0 C1.26675035 3.86826448 0.37374002 5.89726618 -1.1640625 9.62890625 C-2.68837665 13.952545 -3.2941305 18.4824352 -4 23 C-4.66 23 -5.32 23 -6 23 C-8.3530531 16.63291514 -8.83222686 10.02679709 -5.953125 3.69921875 C-5.63859375 3.13847656 -5.3240625 2.57773437 -5 2 C-5 2.99 -5 3.98 -5 5 C-3.68 5 -2.36 5 -1 5 C-0.67 3.35 -0.34 1.7 0 0 Z " fill="#3C94FA" transform="translate(339,558)"/>
<path d="M0 0 C0.87052002 -0.00467285 1.74104004 -0.0093457 2.63793945 -0.01416016 C8.2285421 -0.00034702 13.64118696 0.41839187 19.1875 1.125 C19.1875 1.455 19.1875 1.785 19.1875 2.125 C9.45898934 3.317371 -0.21932617 3.24014301 -10 3.1875 C-11.63606633 3.18247294 -13.27213417 3.17791217 -14.90820312 3.17382812 C-18.87633986 3.16292277 -22.84440291 3.1457253 -26.8125 3.125 C-21.56528727 -2.12221273 -7.24991622 0.02692515 0 0 Z " fill="#C3DFFC" transform="translate(622.8125,884.875)"/>
<path d="M0 0 C1.72251754 4.0845326 0.07280563 7.36973696 -1.4375 11.25 C-1.68048828 11.8996875 -1.92347656 12.549375 -2.17382812 13.21875 C-2.77285994 14.81616817 -3.38514321 16.40860594 -4 18 C-5.32 18 -6.64 18 -8 18 C-7.6083965 12.04492601 -6.62875405 7.37180176 -4 2 C-3.67 2.66 -3.34 3.32 -3 4 C-2.34 4 -1.68 4 -1 4 C-0.67 2.68 -0.34 1.36 0 0 Z " fill="#2686FB" transform="translate(342,545)"/>
<path d="M0 0 C3.28352557 4.92528836 6.22870973 10.67894409 5.8125 16.72265625 C5.3210409 18.87620274 4.75777812 20.92635041 4 23 C1.91806813 20.91806813 1.03424616 19.28020285 -0.1875 16.625 C-0.55230469 15.85414063 -0.91710937 15.08328125 -1.29296875 14.2890625 C-2.08442558 11.72666635 -1.89234179 10.48946307 -1 8 C-0.34 8 0.32 8 1 8 C0.67 5.36 0.34 2.72 0 0 Z " fill="#368DF9" transform="translate(336,775)"/>
<path d="M0 0 C8.91 0 17.82 0 27 0 C27 0.33 27 0.66 27 1 C17.86533168 1.6888091 9.11348853 2.30192693 0 1 C0 0.67 0 0.34 0 0 Z M10 2 C10 2.66 10 3.32 10 4 C13.96 4.33 17.92 4.66 22 5 C22 5.33 22 5.66 22 6 C11.93395765 6.10849626 2.02887177 5.9767249 -8 5 C-8 4.67 -8 4.34 -8 4 C-5.93827387 3.66191314 -3.8755797 3.32972639 -1.8125 3 C-0.66394531 2.814375 0.48460937 2.62875 1.66796875 2.4375 C4.50415393 2.06510523 7.14719564 1.91403979 10 2 Z " fill="#4F9CF6" transform="translate(504,887)"/>
<path d="M0 0 C10.23 0 20.46 0 31 0 C31 0.33 31 0.66 31 1 C27.7 1.33 24.4 1.66 21 2 C21 2.33 21 2.66 21 3 C13.74 3 6.48 3 -1 3 C-0.67 2.01 -0.34 1.02 0 0 Z " fill="#1D81F5" transform="translate(515,888)"/>
<path d="M0 0 C0.75732422 0.00789551 1.51464844 0.01579102 2.29492188 0.02392578 C15.56444687 0.22403969 15.56444687 0.22403969 20 1.1875 C20.33 1.8475 20.66 2.5075 21 3.1875 C10.28539694 3.32786598 -0.3120232 2.92009082 -11 2.1875 C-7.25225458 -0.31099695 -4.33252665 -0.07622386 0 0 Z " fill="#D0E6FC" transform="translate(525,884.8125)"/>
<path d="M0 0 C1.77049689 -0.05410687 3.54146849 -0.09284119 5.3125 -0.125 C6.29863281 -0.14820313 7.28476562 -0.17140625 8.30078125 -0.1953125 C11 0 11 0 14 2 C13.01 2.33 12.02 2.66 11 3 C11.33 3.66 11.66 4.32 12 5 C7.05 5 2.1 5 -3 5 C-3.33 4.34 -3.66 3.68 -4 3 C-2.68 2.67 -1.36 2.34 0 2 C0 1.34 0 0.68 0 0 Z " fill="#2787F9" transform="translate(720,424)"/>
<path d="M0 0 C0 0.66 0 1.32 0 2 C2.97 2.66 5.94 3.32 9 4 C9 4.33 9 4.66 9 5 C1.87354152 5.25706664 -4.80001902 4.69708112 -11.828125 3.51171875 C-16.20195452 2.80608862 -20.58747623 2.37850091 -25 2 C-25 1.67 -25 1.34 -25 1 C-22.33349537 0.83031334 -19.66684474 0.66418179 -17 0.5 C-16.25621094 0.45230469 -15.51242187 0.40460937 -14.74609375 0.35546875 C-9.82037776 0.05564256 -4.93485224 -0.04486229 0 0 Z " fill="#2884F3" transform="translate(710,884)"/>
<path d="M0 0 C8.07094823 -0.10466648 15.9874678 -0.03387512 24 1 C24 1.33 24 1.66 24 2 C16.94887561 4.21211746 10.35342179 4.20177072 3 4 C3.33 3.34 3.66 2.68 4 2 C2.68 1.34 1.36 0.68 0 0 Z " fill="#1379F4" transform="translate(490,887)"/>
<path d="M0 0 C2.95929119 2.75520215 5.03681826 5.46627288 7 9 C6.360625 9.12375 5.72125 9.2475 5.0625 9.375 C4.381875 9.58125 3.70125 9.7875 3 10 C2.67 10.66 2.34 11.32 2 12 C1.15504811 10.92570402 0.32445142 9.84010798 -0.5 8.75 C-0.9640625 8.14671875 -1.428125 7.5434375 -1.90625 6.921875 C-3 5 -3 5 -3 1 C-2.01 0.67 -1.02 0.34 0 0 Z " fill="#2D87F8" transform="translate(355,815)"/>
<path d="M0 0 C5.15171623 -0.09038099 9.91913204 0.15318867 15 1 C14.67 1.99 14.34 2.98 14 4 C10.10835652 5.29721449 7.10570774 5.13033993 3 5 C2.34 4.67 1.68 4.34 1 4 C0.375 1.9375 0.375 1.9375 0 0 Z " fill="#207FF4" transform="translate(454,882)"/>
<path d="M0 0 C10.23 0 20.46 0 31 0 C30.67 0.66 30.34 1.32 30 2 C23.13587529 3.212131 16.83115265 2.83485774 9.9375 2.0625 C8.49600586 1.91264648 8.49600586 1.91264648 7.02539062 1.75976562 C4.6825545 1.5149917 2.34100586 1.26160604 0 1 C0 0.67 0 0.34 0 0 Z " fill="#AED2FB" transform="translate(631,892)"/>
<path d="M0 0 C0.33 0 0.66 0 1 0 C2.14231412 6.65425699 3.22602467 13.29221378 4 20 C3.38125 19.67 2.7625 19.34 2.125 19 C0.08981656 17.85806765 0.08981656 17.85806765 -2 18 C-1.34 12.06 -0.68 6.12 0 0 Z " fill="#3C93F9" transform="translate(331,751)"/>
<path d="M0 0 C0 0.33 0 0.66 0 1 C-1.3921875 1.3403125 -1.3921875 1.3403125 -2.8125 1.6875 C-6.55806164 3.22979009 -7.32908394 4.39433903 -9 8 C-9.33 8.99 -9.66 9.98 -10 11 C-10.639375 11.12375 -11.27875 11.2475 -11.9375 11.375 C-12.618125 11.58125 -13.29875 11.7875 -14 12 C-15.29660434 14.49034386 -15.29660434 14.49034386 -16 17 C-17.60080151 12.99799622 -16.29279692 9.95443764 -15 6 C-13.68 6.66 -12.36 7.32 -11 8 C-10.5978125 6.576875 -10.5978125 6.576875 -10.1875 5.125 C-8.13474655 -0.27698276 -5.26878975 -0.23416843 0 0 Z " fill="#021451" transform="translate(781,729)"/>
<path d="M0 0 C6.70497097 5.09577793 12.31448225 11.49401509 14 20 C13.01 20.33 12.02 20.66 11 21 C10.75765625 20.26394531 10.5153125 19.52789063 10.265625 18.76953125 C8.11731766 12.51465179 6.06291731 7.9535274 1.25 3.3125 C0 2 0 2 0 0 Z " fill="#91C1EF" transform="translate(507,623)"/>
<path d="M0 0 C-0.66 0.66 -1.32 1.32 -2 2 C0.31 2.66 2.62 3.32 5 4 C5 4.33 5 4.66 5 5 C-1.93 4.505 -1.93 4.505 -9 4 C-9 3.67 -9 3.34 -9 3 C-12.63 2.67 -16.26 2.34 -20 2 C-20 1.67 -20 1.34 -20 1 C-13.31184516 0.37577221 -6.71884955 -0.12920865 0 0 Z " fill="#3B8FF5" transform="translate(733,882)"/>
<path d="M0 0 C2.8503026 3.20945602 3.43451699 5.49988548 3.6875 9.75 C3.78611328 11.22726562 3.78611328 11.22726562 3.88671875 12.734375 C3.92410156 13.48203125 3.96148438 14.2296875 4 15 C3.34 14.34 2.68 13.68 2 13 C0.02 13.99 0.02 13.99 -2 15 C-1.47462276 9.9697924 -0.89405214 4.98114761 0 0 Z " fill="#388DF9" transform="translate(880,749)"/>
<path d="M0 0 C4.75056583 -0.02478423 9.50109371 -0.04289989 14.25170898 -0.05493164 C15.86662451 -0.05994942 17.48153552 -0.06676511 19.09643555 -0.07543945 C21.42237465 -0.08761714 23.7482535 -0.09325395 26.07421875 -0.09765625 C27.15107185 -0.10539818 27.15107185 -0.10539818 28.24967957 -0.11329651 C31.96290232 -0.11370876 35.38991122 0.11055784 39 1 C39 1.33 39 1.66 39 2 C36.36 2.33 33.72 2.66 31 3 C31 2.34 31 1.68 31 1 C20.77 1 10.54 1 0 1 C0 0.67 0 0.34 0 0 Z " fill="#233777" transform="translate(703,527)"/>
<path d="M0 0 C-1.86542031 2.38359261 -2.71808505 2.961989 -5.78125 3.375 C-9.44998198 4.08737514 -11.39415987 5.34701071 -14.375 7.5625 C-15.24898438 8.20316406 -16.12296875 8.84382812 -17.0234375 9.50390625 C-17.67570312 9.99761719 -18.32796875 10.49132812 -19 11 C-19.66 10.67 -20.32 10.34 -21 10 C-19.44384991 8.70069021 -17.8797832 7.41085862 -16.3125 6.125 C-15.44238281 5.40570312 -14.57226562 4.68640625 -13.67578125 3.9453125 C-9.08892557 0.61063494 -5.64109526 -0.26237652 0 0 Z " fill="#72ACE7" transform="translate(488,617)"/>
<path d="M0 0 C2.90058372 -0.30344568 5.54074295 -0.41805667 8.4375 -0.375 C9.21416016 -0.38660156 9.99082031 -0.39820313 10.79101562 -0.41015625 C15.3929281 -0.38637376 16.62131581 -0.37868419 20 3 C12.74 3 5.48 3 -2 3 C-1.34 2.01 -0.68 1.02 0 0 Z " fill="#A1CCFA" transform="translate(648,884)"/>
<path d="M0 0 C2.475 0.495 2.475 0.495 5 1 C2.17472464 2.56897703 -0.11842048 3.31184205 -3.328125 3.6328125 C-4.52695312 3.75849609 -4.52695312 3.75849609 -5.75 3.88671875 C-6.575 3.96535156 -7.4 4.04398438 -8.25 4.125 C-9.09046875 4.21136719 -9.9309375 4.29773438 -10.796875 4.38671875 C-12.86388223 4.59811722 -14.93185928 4.79999462 -17 5 C-16.67 4.01 -16.34 3.02 -16 2 C-15.39671875 2.01160156 -14.7934375 2.02320313 -14.171875 2.03515625 C-13.37265625 2.04417969 -12.5734375 2.05320312 -11.75 2.0625 C-10.96109375 2.07410156 -10.1721875 2.08570313 -9.359375 2.09765625 C-7.01639655 2.08701023 -7.01639655 2.08701023 -4.890625 1.43359375 C-3 1 -3 1 0 2 C0 1.34 0 0.68 0 0 Z " fill="#C9E2FC" transform="translate(738,878)"/>
<path d="M0 0 C1.65 0 3.3 0 5 0 C4.06812096 3.21921852 3.62068502 4.65698986 0.625 6.3125 C-2 7 -2 7 -6 7 C-6 6.34 -6 5.68 -6 5 C-5.34 5 -4.68 5 -4 5 C-3.67 4.01 -3.34 3.02 -3 2 C-2.01 2 -1.02 2 0 2 C0 1.34 0 0.68 0 0 Z " fill="#207EF6" transform="translate(771,873)"/>
<path d="M0 0 C0.33 0.99 0.66 1.98 1 3 C-2.63 6.3 -6.26 9.6 -10 13 C-10.99 12.34 -11.98 11.68 -13 11 C-8.71 7.37 -4.42 3.74 0 0 Z " fill="#2D8AFA" transform="translate(349,286)"/>
<path d="M0 0 C2.31 0.66 4.62 1.32 7 2 C7 2.99 7 3.98 7 5 C6.01 5 5.02 5 4 5 C4.33 8.63 4.66 12.26 5 16 C3.22714569 12.45429137 2.28770187 9.56675327 1.375 5.75 C0.98441406 4.13351562 0.98441406 4.13351562 0.5859375 2.484375 C0.39257812 1.66453125 0.19921875 0.8446875 0 0 Z " fill="#3D91F6" transform="translate(871,546)"/>
<path d="M0 0 C-8.22047203 3.35448294 -16.32818942 6.07813928 -25 8 C-24.67 7.01 -24.34 6.02 -24 5 C-23.40574219 4.90203125 -22.81148437 4.8040625 -22.19921875 4.703125 C-16.27470179 3.63431634 -10.92371467 1.97757015 -5.34765625 -0.29296875 C-3 -1 -3 -1 0 0 Z " fill="#C5E2FC" transform="translate(784,869)"/>
<path d="M0 0 C0.33 1.32 0.66 2.64 1 4 C-0.65234375 6.140625 -0.65234375 6.140625 -2.9375 8.25 C-3.68902344 8.95640625 -4.44054687 9.6628125 -5.21484375 10.390625 C-5.80394531 10.92171875 -6.39304687 11.4528125 -7 12 C-7.66 11.01 -8.32 10.02 -9 9 C-6.03 6.03 -3.06 3.06 0 0 Z " fill="#163576" transform="translate(408,561)"/>
<path d="M0 0 C0.66 0.33 1.32 0.66 2 1 C2 3 2 3 0.390625 4.62109375 C-0.66898437 5.52021484 -0.66898437 5.52021484 -1.75 6.4375 C-2.44609375 7.03433594 -3.1421875 7.63117188 -3.859375 8.24609375 C-5.86673589 9.89081098 -7.91070312 11.46126108 -10 13 C-10.66 12.67 -11.32 12.34 -12 12 C-8.04 8.04 -4.08 4.08 0 0 Z " fill="#358EFA" transform="translate(322,310)"/>
<path d="M0 0 C7.59 0.33 15.18 0.66 23 1 C23 1.33 23 1.66 23 2 C20.10462723 2.2224897 17.20965101 2.42843154 14.3125 2.625 C13.49587891 2.68945312 12.67925781 2.75390625 11.83789062 2.8203125 C7.36853066 3.1098257 4.07410474 3.1739622 0 1 C0 0.67 0 0.34 0 0 Z " fill="#D5E9FD" transform="translate(522,893)"/>
<path d="M0 0 C0.33 0 0.66 0 1 0 C0.49228528 5.96564796 -1.38592128 10.63809899 -4 16 C-5.1796875 14.390625 -5.1796875 14.390625 -6 12 C-4.8828125 8.984375 -4.8828125 8.984375 -3.125 5.75 C-2.55007813 4.67234375 -1.97515625 3.5946875 -1.3828125 2.484375 C-0.92648437 1.66453125 -0.47015625 0.8446875 0 0 Z " fill="#133174" transform="translate(384,592)"/>
<path d="M0 0 C0.61488281 0.0721875 1.22976563 0.144375 1.86328125 0.21875 C3.07564453 0.35796875 3.07564453 0.35796875 4.3125 0.5 C5.11300781 0.5928125 5.91351563 0.685625 6.73828125 0.78125 C9.11896555 1.04813463 9.11896555 1.04813463 12 1 C12 1.66 12 2.32 12 3 C7.40456709 5.29771645 0.82752346 4.24581251 -4 3 C-2.68 2.67 -1.36 2.34 0 2 C0 1.34 0 0.68 0 0 Z " fill="#3388F0" transform="translate(471,886)"/>
<path d="M0 0 C0 0.99 0 1.98 0 3 C-8.261959 7.59225513 -8.261959 7.59225513 -13 7 C-4.79310345 0 -4.79310345 0 0 0 Z " fill="#203C7B" transform="translate(438,542)"/>
<path d="M0 0 C0 0.99 0 1.98 0 3 C-4.95 3 -9.9 3 -15 3 C-14.67 2.34 -14.34 1.68 -14 1 C-9.30643695 0.06128739 -4.77567869 -0.09746283 0 0 Z " fill="#B4D8FC" transform="translate(685,883)"/>
<path d="M0 0 C0.66 0.66 1.32 1.32 2 2 C-0.97 4.97 -3.94 7.94 -7 11 C-7.99 10.34 -8.98 9.68 -10 9 C-6.7 6.03 -3.4 3.06 0 0 Z " fill="#2F8AFA" transform="translate(335,298)"/>
<path d="M0 0 C2.34031003 0.20185174 4.67372713 0.48654039 7 0.8125 C8.918125 1.06966797 8.918125 1.06966797 10.875 1.33203125 C12.421875 1.66267578 12.421875 1.66267578 14 2 C14.33 2.66 14.66 3.32 15 4 C12.70774565 3.88628503 10.41617612 3.75869036 8.125 3.625 C6.84882813 3.55539062 5.57265625 3.48578125 4.2578125 3.4140625 C1 3 1 3 -1 1 C-0.67 0.67 -0.34 0.34 0 0 Z " fill="#CDE4FC" transform="translate(468,881)"/>
<path d="M0 0 C0.33 0.99 0.66 1.98 1 3 C-1.72856166 7.4210905 -5.85296406 10.95070887 -10 14 C-10.66 13.67 -11.32 13.34 -12 13 C-11.38511719 12.39671875 -10.77023437 11.7934375 -10.13671875 11.171875 C-9.32847656 10.37265625 -8.52023437 9.5734375 -7.6875 8.75 C-6.88699219 7.96109375 -6.08648438 7.1721875 -5.26171875 6.359375 C-3.31256349 4.32605933 -1.62578594 2.29398922 0 0 Z " fill="#D8E0EE" transform="translate(818,782)"/>
<path d="M0 0 C4.00972202 3.67557852 6.45335415 7.18966896 9 12 C8.01 12 7.02 12 6 12 C4.39453125 10.390625 4.39453125 10.390625 2.8125 8.25 C2.01779297 7.20585937 2.01779297 7.20585937 1.20703125 6.140625 C0 4 0 4 0 0 Z " fill="#348FF9" transform="translate(911,336)"/>
<path d="M0 0 C0.33 0 0.66 0 1 0 C1.66 6.27 2.32 12.54 3 19 C2.34 19.33 1.68 19.66 1 20 C0.11978631 13.28837062 -0.11381955 6.76594019 0 0 Z " fill="#529CF6" transform="translate(969,794)"/>
<path d="M0 0 C5.33489907 0.45990509 9.37523328 1.06722111 14 4 C14.33 4.99 14.66 5.98 15 7 C9.80355921 5.40109514 4.93387858 3.25861997 0 1 C0 0.67 0 0.34 0 0 Z " fill="#3E8CF2" transform="translate(428,964)"/>
<path d="M0 0 C0.66 0.66 1.32 1.32 2 2 C-0.97 4.64 -3.94 7.28 -7 10 C-7.99 9.67 -8.98 9.34 -10 9 C-6.7 6.03 -3.4 3.06 0 0 Z " fill="#2F8AF9" transform="translate(304,590)"/>
<path d="M0 0 C0.33 0 0.66 0 1 0 C0.98839844 0.77085937 0.97679687 1.54171875 0.96484375 2.3359375 C0.95582031 3.33882812 0.94679688 4.34171875 0.9375 5.375 C0.92589844 6.37273438 0.91429687 7.37046875 0.90234375 8.3984375 C0.81993398 10.98432453 0.81993398 10.98432453 2 13 C0.68 13.33 -0.64 13.66 -2 14 C-1.85866501 12.22880197 -1.71176792 10.45804713 -1.5625 8.6875 C-1.48128906 7.70136719 -1.40007812 6.71523438 -1.31640625 5.69921875 C-1 3 -1 3 0 0 Z " fill="#B5D1EE" transform="translate(458,643)"/>
<path d="M0 0 C0.33 1.32 0.66 2.64 1 4 C-1.64 6.31 -4.28 8.62 -7 11 C-7.66 10.67 -8.32 10.34 -9 10 C-8.27683594 9.29423828 -8.27683594 9.29423828 -7.5390625 8.57421875 C-6.90742188 7.95160156 -6.27578125 7.32898438 -5.625 6.6875 C-4.68527344 5.76517578 -4.68527344 5.76517578 -3.7265625 4.82421875 C-1.81913393 2.91187472 -1.81913393 2.91187472 0 0 Z " fill="#2E8BFB" transform="translate(309,323)"/>
<path d="M0 0 C1.7290774 -0.02725341 3.45828176 -0.04650987 5.1875 -0.0625 C6.15042969 -0.07410156 7.11335938 -0.08570313 8.10546875 -0.09765625 C10.85576513 -0.00486622 13.32479591 0.37888315 16 1 C16 1.33 16 1.66 16 2 C13.89807303 2.24887295 11.79326036 2.4734719 9.6875 2.6875 C8.51574219 2.81511719 7.34398437 2.94273437 6.13671875 3.07421875 C3 3 3 3 1.08203125 1.51953125 C0.72496094 1.01808594 0.36789062 0.51664063 0 0 Z " fill="#DDEEFD" transform="translate(498,892)"/>
<path d="M0 0 C0.99 0.33 1.98 0.66 3 1 C3.33 2.65 3.66 4.3 4 6 C3.01 5.67 2.02 5.34 1 5 C0.67 5.66 0.34 6.32 0 7 C-2 4 -2 4 -2 1 C-1.34 0.67 -0.68 0.34 0 0 Z " fill="#1879F9" transform="translate(351,811)"/>
<path d="M0 0 C1.65 0.99 3.3 1.98 5 3 C4.67 3.66 4.34 4.32 4 5 C3.34 4.67 2.68 4.34 2 4 C1.5978125 5.2065625 1.5978125 5.2065625 1.1875 6.4375 C0.5996875 7.7059375 0.5996875 7.7059375 0 9 C-0.99 9.33 -1.98 9.66 -3 10 C-2.01 6.7 -1.02 3.4 0 0 Z " fill="#3085F9" transform="translate(874,775)"/>
<path d="M0 0 C1.03125 0.144375 2.0625 0.28875 3.125 0.4375 C3.125 0.7675 3.125 1.0975 3.125 1.4375 C1.145 1.4375 -0.835 1.4375 -2.875 1.4375 C-2.9575 2.035625 -3.04 2.63375 -3.125 3.25 C-4.07955872 6.0341296 -5.44632271 6.87061142 -7.875 8.4375 C-8.535 8.1075 -9.195 7.7775 -9.875 7.4375 C-5.09600656 0.57535558 -5.09600656 0.57535558 0 0 Z " fill="#DEE2EE" transform="translate(634.875,711.5625)"/>
<path d="M0 0 C0.33 0.99 0.66 1.98 1 3 C-0.21484375 4.82421875 -0.21484375 4.82421875 -1.9375 6.6875 C-2.50339844 7.31011719 -3.06929687 7.93273437 -3.65234375 8.57421875 C-4.09707031 9.04472656 -4.54179688 9.51523437 -5 10 C-5.99 9.34 -6.98 8.68 -8 8 C-3.375 3.125 -3.375 3.125 0 2 C0 1.34 0 0.68 0 0 Z M-8 10 C-6 11 -6 11 -6 11 Z " fill="#0E215A" transform="translate(759,680)"/>
<path d="M0 0 C7.425 0.99 7.425 0.99 15 2 C15 2.33 15 2.66 15 3 C9.72 3 4.44 3 -1 3 C-0.67 2.01 -0.34 1.02 0 0 Z " fill="#368BF3" transform="translate(692,887)"/>
<path d="M0 0 C3.63 0.33 7.26 0.66 11 1 C9 3 9 3 6.8359375 3.1953125 C5.61777344 3.16050781 5.61777344 3.16050781 4.375 3.125 C3.55773437 3.10695313 2.74046875 3.08890625 1.8984375 3.0703125 C1.27195312 3.04710937 0.64546875 3.02390625 0 3 C0 2.01 0 1.02 0 0 Z " fill="#237EF0" transform="translate(720,885)"/>
<path d="M0 0 C1.62490954 -0.02698189 3.24994633 -0.04638757 4.875 -0.0625 C5.77992188 -0.07410156 6.68484375 -0.08570313 7.6171875 -0.09765625 C10 0 10 0 12 1 C12 1.66 12 2.32 12 3 C10.56344146 3.08131463 9.1255517 3.13933559 7.6875 3.1875 C6.48673828 3.23970703 6.48673828 3.23970703 5.26171875 3.29296875 C2.52148416 2.93801608 1.70828921 2.10633718 0 0 Z " fill="#C2DDFB" transform="translate(500,884)"/>
<path d="M0 0 C0.33 0.99 0.66 1.98 1 3 C-1.64 5.31 -4.28 7.62 -7 10 C-7.33 9.01 -7.66 8.02 -8 7 C-5.36 4.69 -2.72 2.38 0 0 Z " fill="#E1E8F4" transform="translate(805,796)"/>
<path d="M0 0 C0.33 0 0.66 0 1 0 C1.33 3.96 1.66 7.92 2 12 C1.01 12.33 0.02 12.66 -1 13 C-2.12758089 9.61725734 -1.81750262 8.23221777 -1.0625 4.8125 C-0.86785156 3.91144531 -0.67320312 3.01039063 -0.47265625 2.08203125 C-0.23869141 1.05142578 -0.23869141 1.05142578 0 0 Z " fill="#2585FA" transform="translate(335,771)"/>
<path d="M0 0 C0.66 0 1.32 0 2 0 C3.46726798 3.81489674 2.43336419 6.29011622 1 10 C0.34 9.34 -0.32 8.68 -1 8 C-0.96712417 5.27130593 -0.43602229 2.7033382 0 0 Z " fill="#2C88FA" transform="translate(341,792)"/>
<path d="M0 0 C2 1 2 1 2.8125 2.875 C3 5 3 5 1.75 6.75 C0 8 0 8 -3 8 C-2.37240135 5.07120629 -1.41377341 2.63904371 0 0 Z " fill="#1672F5" transform="translate(871,787)"/>
<path d="M0 0 C0.99 0 1.98 0 3 0 C3.20086443 3.71599191 3.1519437 4.77208445 1 8 C0.34 8 -0.32 8 -1 8 C-1.33 8.99 -1.66 9.98 -2 11 C-1 3.57142857 -1 3.57142857 0 0 Z " fill="#294783" transform="translate(372,623)"/>
<path d="M0 0 C4.3177458 0.50797009 8.03302114 1.19682779 12 3 C9 5 9 5 5.8125 4.625 C4.884375 4.41875 3.95625 4.2125 3 4 C3 3.34 3 2.68 3 2 C2.01 1.34 1.02 0.68 0 0 Z " fill="#4D5E90" transform="translate(754,531)"/>
<path d="M0 0 C-1.677033 2.04371546 -2.53872837 2.92353251 -5.19140625 3.36328125 C-5.97386719 3.34652344 -6.75632812 3.32976563 -7.5625 3.3125 C-8.34753906 3.30863281 -9.13257813 3.30476562 -9.94140625 3.30078125 C-12 3 -12 3 -14 1 C-9.32798795 -0.20568053 -4.78503708 -0.09382426 0 0 Z " fill="#1777F3" transform="translate(469,884)"/>
<path d="M0 0 C2.45823172 3.68734758 3.01242616 6.69699971 4 11 C3.38125 10.79375 2.7625 10.5875 2.125 10.375 C1.42375 10.25125 0.7225 10.1275 0 10 C-0.66 10.66 -1.32 11.32 -2 12 C-1.67 10.68 -1.34 9.36 -1 8 C-0.34 8 0.32 8 1 8 C0.67 5.36 0.34 2.72 0 0 Z " fill="#57A2FB" transform="translate(336,775)"/>
<path d="M0 0 C0.99 0 1.98 0 3 0 C2 4 2 4 1 8 C0.01 8 -0.98 8 -2 8 C-1.125 2.25 -1.125 2.25 0 0 Z " fill="#3CA6EE" transform="translate(754,734)"/>
<path d="M0 0 C2.87579981 4.31369972 4 7.80734761 4 13 C3.34 13 2.68 13 2 13 C1.66127487 11.58461283 1.32925376 10.16762037 1 8.75 C0.814375 7.96109375 0.62875 7.1721875 0.4375 6.359375 C0 4 0 4 0 0 Z " fill="#4999F8" transform="translate(984,474)"/>
<path d="M0 0 C5.28 0.33 10.56 0.66 16 1 C16 1.33 16 1.66 16 2 C14.27277272 2.22384382 12.54303993 2.42839969 10.8125 2.625 C9.36810547 2.79902344 9.36810547 2.79902344 7.89453125 2.9765625 C4.75924677 3.00194942 2.80513465 2.34359283 0 1 C0 0.67 0 0.34 0 0 Z " fill="#3A94F8" transform="translate(642,193)"/>
<path d="M0 0 C0 0.66 0 1.32 0 2 C1.98 2 3.96 2 6 2 C6 2.33 6 2.66 6 3 C1.05 3 -3.9 3 -9 3 C-3 0 -3 0 0 0 Z " fill="#AED4FC" transform="translate(696,882)"/>
<path d="M0 0 C2.31 0.33 4.62 0.66 7 1 C5 4 5 4 2.375 4.6875 C1.199375 4.8421875 1.199375 4.8421875 0 5 C0 3.35 0 1.7 0 0 Z " fill="#1F7EF7" transform="translate(428,874)"/>
<path d="M0 0 C0.33 1.32 0.66 2.64 1 4 C-1.4375 6.75 -1.4375 6.75 -4 9 C-4.66 8.34 -5.32 7.68 -6 7 C-4.02 4.69 -2.04 2.38 0 0 Z " fill="#3890FA" transform="translate(299,334)"/>
<path d="M0 0 C0.66 0.33 1.32 0.66 2 1 C0.68 1.33 -0.64 1.66 -2 2 C-2 2.66 -2 3.32 -2 4 C-4.95664519 5.4783226 -7.74229737 5.06032783 -11 5 C-7.41161963 3.13404221 -3.77010767 1.46615298 0 0 Z " fill="#4799F5" transform="translate(960,307)"/>
<path d="M0 0 C2 2 2 2 2.25 5.4375 C2 9 2 9 0 12 C-0.33 10.02 -0.66 8.04 -1 6 C-0.34 6 0.32 6 1 6 C0.67 4.02 0.34 2.04 0 0 Z " fill="#0A77F8" transform="translate(333,769)"/>
<path d="M0 0 C1.2077558 3.62326739 0.54311128 4.64146369 -1 8 C-1.33 7.01 -1.66 6.02 -2 5 C-2.99 5.33 -3.98 5.66 -5 6 C-5 5.01 -5 4.02 -5 3 C-4.360625 2.87625 -3.72125 2.7525 -3.0625 2.625 C-2.0415625 2.315625 -2.0415625 2.315625 -1 2 C-0.67 1.34 -0.34 0.68 0 0 Z " fill="#021659" transform="translate(443,742)"/>
<path d="M0 0 C0.33 0 0.66 0 1 0 C2.10228696 4.40914783 2.07654536 8.48382401 2 13 C0.4375 11.5625 0.4375 11.5625 -1 9 C-0.96846324 5.94619073 -0.53266629 3.00346778 0 0 Z " fill="#4D9AF8" transform="translate(328,728)"/>
<path d="M0 0 C10.55808656 -0.18451025 10.55808656 -0.18451025 15 1 C15 1.33 15 1.66 15 2 C12.36 2.33 9.72 2.66 7 3 C7 2.34 7 1.68 7 1 C4.69 1 2.38 1 0 1 C0 0.67 0 0.34 0 0 Z " fill="#56669A" transform="translate(727,527)"/>
<path d="M0 0 C0.66 1.32 1.32 2.64 2 4 C0.625 5.5 0.625 5.5 -1 7 C-1.66 7 -2.32 7 -3 7 C-2.25 2.25 -2.25 2.25 0 0 Z " fill="#1E7AF7" transform="translate(358,506)"/>
<path d="M0 0 C0 0.66 0 1.32 0 2 C-3.3 1.67 -6.6 1.34 -10 1 C-6.1496895 -1.56687367 -4.41430237 -0.83288724 0 0 Z " fill="#C2DFFC" transform="translate(466,881)"/>
<path d="M0 0 C0.66 0 1.32 0 2 0 C5 5.75 5 5.75 5 8 C2 7 2 7 0.8125 5.125 C0 3 0 3 0 0 Z " fill="#2A85F4" transform="translate(988,861)"/>
<path d="M0 0 C-0.33 0.99 -0.66 1.98 -1 3 C-3.31 2.67 -5.62 2.34 -8 2 C-8 1.67 -8 1.34 -8 1 C-5.23735711 0.40267181 -2.83967231 0 0 0 Z M-8 3 C-6.68 3.33 -5.36 3.66 -4 4 C-4.99 4.495 -4.99 4.495 -6 5 C-6.66 4.34 -7.32 3.68 -8 3 Z " fill="#1A275D" transform="translate(617,748)"/>
<path d="M0 0 C0.66 0.99 1.32 1.98 2 3 C0.1875 4.5625 0.1875 4.5625 -2 6 C-2.99 5.67 -3.98 5.34 -5 5 C-3.35 3.35 -1.7 1.7 0 0 Z " fill="#E9ECF1" transform="translate(753,683)"/>
<path d="M0 0 C-1 3 -1 3 -4.375 4.75 C-8 6 -8 6 -11 5 C-9.54462432 4.16151196 -8.08559627 3.32936066 -6.625 2.5 C-5.81289063 2.0359375 -5.00078125 1.571875 -4.1640625 1.09375 C-2 0 -2 0 0 0 Z " fill="#3B92FA" transform="translate(423,238)"/>
<path d="M0 0 C-0.33 0.99 -0.66 1.98 -1 3 C-3.97 2.67 -6.94 2.34 -10 2 C-10 1.67 -10 1.34 -10 1 C-6.59437148 0.22157062 -3.49234244 -0.09978121 0 0 Z " fill="#D0E5FA" transform="translate(697,997)"/>
<path d="M0 0 C0.99 0.33 1.98 0.66 3 1 C3 1.99 3 2.98 3 4 C1.02 4.33 -0.96 4.66 -3 5 C-3 4.34 -3 3.68 -3 3 C-2.34 3 -1.68 3 -1 3 C-0.67 2.01 -0.34 1.02 0 0 Z " fill="#1878F3" transform="translate(768,875)"/>
<path d="M0 0 C0.6875 1.6875 0.6875 1.6875 1 4 C-0.25 6.6875 -0.25 6.6875 -2 9 C-2.99 9.33 -3.98 9.66 -5 10 C-3.66511872 6.40608886 -2.03977277 3.24509304 0 0 Z " fill="#3A90FB" transform="translate(255,394)"/>
<path d="M0 0 C1.98 0.66 3.96 1.32 6 2 C6 2.33 6 2.66 6 3 C2.37 3 -1.26 3 -5 3 C-5 2.67 -5 2.34 -5 2 C-3.35 2 -1.7 2 0 2 C0 1.34 0 0.68 0 0 Z " fill="#AED3FA" transform="translate(490,883)"/>
<path d="M0 0 C0.33 0 0.66 0 1 0 C1.125 5.75 1.125 5.75 0 8 C-0.66 8 -1.32 8 -2 8 C-2.20086443 4.28400809 -2.1519437 3.22791555 0 0 Z " fill="#197DF7" transform="translate(882,760)"/>
<path d="M0 0 C2.31 1.65 4.62 3.3 7 5 C6.34 5.66 5.68 6.32 5 7 C3.02 5.35 1.04 3.7 -1 2 C-0.67 1.34 -0.34 0.68 0 0 Z " fill="#2F90FB" transform="translate(905,580)"/>
<path d="M0 0 C0.66 0.99 1.32 1.98 2 3 C1.67 3.99 1.34 4.98 1 6 C0.01 6.33 -0.98 6.66 -2 7 C-2.125 4.625 -2.125 4.625 -2 2 C-1.34 1.34 -0.68 0.68 0 0 Z " fill="#0E7DFB" transform="translate(879,561)"/>
<path d="M0 0 C0.66 0.66 1.32 1.32 2 2 C0.02 3.32 -1.96 4.64 -4 6 C-4.66 5.34 -5.32 4.68 -6 4 C-4.02 2.68 -2.04 1.36 0 0 Z " fill="#173578" transform="translate(421,551)"/>
<path d="M0 0 C0.99 0.33 1.98 0.66 3 1 C1.68 2.32 0.36 3.64 -1 5 C-1.99 4.67 -2.98 4.34 -4 4 C-2.68 2.68 -1.36 1.36 0 0 Z " fill="#2383F7" transform="translate(388,471)"/>
<path d="M0 0 C0.66 0.33 1.32 0.66 2 1 C0.35 2.65 -1.3 4.3 -3 6 C-3.99 5.67 -4.98 5.34 -6 5 C-4.02 3.35 -2.04 1.7 0 0 Z " fill="#3990FA" transform="translate(356,280)"/>
<path d="M0 0 C0 0.99 0 1.98 0 3 C-3 5 -3 5 -5.1875 4.625 C-5.785625 4.41875 -6.38375 4.2125 -7 4 C-2.25 0 -2.25 0 0 0 Z " fill="#328DFB" transform="translate(366,274)"/>
</svg>
